<?xml version="1.0" encoding="utf-8"?>
<!-- Generator: Adobe Illustrator 16.0.3, SVG Export Plug-In . SVG Version: 6.00 Build 0)  -->
<!DOCTYPE svg PUBLIC "-//W3C//DTD SVG 1.1//EN" "http://www.w3.org/Graphics/SVG/1.1/DTD/svg11.dtd">
<svg version="1.1" xmlns="http://www.w3.org/2000/svg" xmlns:xlink="http://www.w3.org/1999/xlink" x="0px" y="0px" width="150px"
	 height="99.229px" viewBox="0 0 150 99.229" enable-background="new 0 0 150 99.229" xml:space="preserve">
<g id="brazo_izq">
</g>
<g id="frasco_izq">
</g>
<g id="dedos_izq">
</g>
<g id="brazo_der">
</g>
<g id="frasco_der">
</g>
<g id="dedos_der">
</g>
<g id="cer_cen_baj" display="none">
	<path display="inline" fill="#53BCD7" d="M105.428,145.317c9.415,11.031-33.134-10.673-75.083,5.349
		c12.93,14.043,41.697,127.706,4.805,145.735c6.781,5.797,48.165,15.479,62.366,0.239
		C54.542,272.348,105.428,145.317,105.428,145.317"/>
</g>
<g id="cer_baj_izq" display="none">
	<path display="inline" fill="#F7E0BD" d="M-101,128.436c-16,59.619,83,115,156,115c0-32-12.574-76.514-20-88c-12,1-22,3-38-12
		C-16,162.436-101,128.436-101,128.436z"/>
</g>
<g id="cer_baj_der" display="none">
	<path display="inline" fill="#F7E0BD" d="M234.279,127.436c16,59.619-83,115-156,115c0-32,12.574-76.514,20-88c12,1,22,3,38-12
		C149.279,161.436,234.279,127.436,234.279,127.436z"/>
</g>
<g id="cer_cen">
</g>
<g id="cer_alt_izq">
</g>
<g id="cer_alt_der">
</g>
<g id="lineas_cer_izq">
</g>
<g id="lineas_cer_der">
	<path opacity="0.5" fill="none" stroke="#000000" stroke-width="0.5" stroke-miterlimit="10" d="M91.299,63.793
		c0-4.725,5.763-8.547,12.883-8.547"/>
	<path fill="#D16181" d="M68.575,7.515h13.601c0,0-6.918,61.173-0.076,64.623c8.424-0.346,10.801,2.473,13.526,4.224
		c1.676,3.41-4.414,7.858,3.634,15.122c-0.106,6.921-42.564,9.993-48.003,0.405c3.843-3.654,4.527-5.254,3.725-15.181
		c1.714-2.154,9.308-5.262,13.057-4.011c5.143-2.976,6.417-28.542,3.355-48.514"/>
	<path fill="#D9A5B2" d="M70.725,2.495c-0.53-0.477-1.342-0.688-2.035-0.684c-0.173,0-0.331-0.022-0.478-0.06
		C11.291,3.567-4.67,57.719,4.876,75.223C11.556,87.47,30.792,93.721,47.93,93.78c12.678-6.338,6.465-10.711,7.052-17.071
		c3.101,0,5.856-4.084,11.505-4.084c9.666,3.618,9.324-50.187,5.245-68.759C71.42,3.377,71.135,2.863,70.725,2.495z"/>
	<path opacity="0.5" fill="#D9A5B2" stroke="#000000" stroke-width="0.5" stroke-miterlimit="10" d="M13.788,29.337
		c0,0,13.837,1.954,10.967,5.392"/>
	<path opacity="0.5" fill="#D9A5B2" stroke="#000000" stroke-width="0.5" stroke-miterlimit="10" d="M22.626,19.268
		c-1.868,1.795,8.331-0.362,8.627,4.041"/>
	<path opacity="0.5" fill="none" stroke="#000000" stroke-width="0.5" stroke-miterlimit="10" d="M20.701,27.957
		c0.1-0.937,9.09-4.349,6.616-7.495"/>
	<path opacity="0.5" fill="none" stroke="#000000" stroke-width="0.5" stroke-miterlimit="10" d="M30.169,14.984
		c3.748,4.049,19.191-9.168,16.252-4.285"/>
	<path opacity="0.5" fill="none" stroke="#000000" stroke-width="0.5" stroke-miterlimit="10" d="M48.815,5.384
		c7.686-2.822,5.219,11.774,8.572,3.885"/>
	<path fill="#D9A5B2" d="M80.979,1.731c-0.098,0.017-0.199,0.028-0.307,0.028c-1.091,0.392-2.046,1.01-2.579,2.103
		c-0.012,0.056-0.026,0.114-0.044,0.171c-1.865,18.014-3.54,72.189,6.072,68.591c5.648,0,8.405,4.084,11.505,4.084
		c0.588,6.36-5.625,10.733,7.054,17.071c17.137-0.059,36.373-6.31,43.053-18.557C155.293,57.695,136.518,3.417,80.979,1.731z"/>
	<path opacity="0.5" fill="none" stroke="#000000" stroke-width="0.5" stroke-miterlimit="10" d="M90.884,11.665
		c4.867,3.128,1.792-5.649,4.81-4.663"/>
	<path opacity="0.5" fill="none" stroke="#000000" stroke-width="0.5" stroke-miterlimit="10" d="M108.897,11.236
		c0,0,12.199,4.993,11.311,6.543"/>
	<path opacity="0.5" fill="none" stroke="#000000" stroke-width="0.5" stroke-miterlimit="10" d="M130.208,22.944
		c0,0-12.897-2.991-9.23,0"/>
	<path opacity="0.5" fill="none" stroke="#000000" stroke-width="0.5" stroke-miterlimit="10" d="M134.776,28.311
		c2.563,1.218-9.477,3.276-8.275,6.418"/>
	<path opacity="0.5" fill="none" stroke="#000000" stroke-width="0.5" stroke-miterlimit="10" d="M141.722,39.416
		c0,0-2.18-1.726-4.47-3.038c-2.512-1.436-5.158-2.377-5.209,0.002"/>
	<path opacity="0.5" fill="none" stroke="#000000" stroke-width="0.5" stroke-miterlimit="10" d="M132.47,41.603
		c5.293,2.578,2.645-6.368,3.712-5.796"/>
	<path opacity="0.5" fill="none" stroke="#000000" stroke-width="0.5" stroke-miterlimit="10" d="M136.882,52.158
		c-0.105,2.773,7.488-3.067,7.784,0"/>
	<path opacity="0.5" fill="none" stroke="#000000" stroke-width="0.5" stroke-miterlimit="10" d="M54.982,76.708
		c-11.009-3.524-23.977-19.065-35.564-15.643"/>
	<path opacity="0.5" fill="none" stroke="#000000" stroke-width="0.5" stroke-miterlimit="10" d="M11.848,83.154
		c4.905,0,4.905-9.97,14.473-6.528"/>
	<path opacity="0.5" fill="none" stroke="#000000" stroke-width="0.5" stroke-miterlimit="10" d="M4.798,61.823
		c0,5.32,13.25,5.176,11.955,9.624"/>
	<path opacity="0.5" fill="none" stroke="#000000" stroke-width="0.5" stroke-miterlimit="10" d="M31.005,91.753
		c0-4.753-4.168-11.567-8.336-8.6"/>
	<path opacity="0.5" fill="none" stroke="#000000" stroke-width="0.5" stroke-miterlimit="10" d="M34.937,92.583
		c-1.712-5.948,5.192-12.692-1.712-12.692"/>
	<path opacity="0.5" fill="none" stroke="#000000" stroke-width="0.5" stroke-miterlimit="10" d="M41.854,91.753
		c0-2.828,3.242-5.118,7.249-5.118"/>
	<path opacity="0.5" fill="none" stroke="#000000" stroke-width="0.5" stroke-miterlimit="10" d="M40.128,79.891
		c0,4.181,2.255,7.562,5.042,7.562"/>
	<path opacity="0.5" fill="none" stroke="#000000" stroke-width="0.5" stroke-miterlimit="10" d="M33.225,75.246
		c0-4.208-2.856-7.611-6.387-7.611"/>
	<path opacity="0.5" fill="none" stroke="#000000" stroke-width="0.5" stroke-miterlimit="10" d="M19.085,77.5
		c0-8.666-1.036-13.134,7.236-15.678"/>
	<path opacity="0.5" fill="none" stroke="#000000" stroke-width="0.5" stroke-miterlimit="10" d="M55.215,80.186
		c0-1.969-4.493-3.561-10.044-3.561"/>
	<path opacity="0.5" fill="none" stroke="#000000" stroke-width="0.5" stroke-miterlimit="10" d="M42.649,69.662
		c0,3.894-2.438,7.047-5.45,7.047"/>
	<path opacity="0.5" fill="none" stroke="#000000" stroke-width="0.5" stroke-miterlimit="10" d="M11.848,61.066
		c0-3.802,5.547-6.876,12.402-6.876"/>
	<path opacity="0.5" fill="none" stroke="#000000" stroke-width="0.5" stroke-miterlimit="10" d="M24.25,38.658
		c3.354,5.868-11.036,6.867-12.402,11.045"/>
	<path opacity="0.5" fill="none" stroke="#000000" stroke-width="0.5" stroke-miterlimit="10" d="M33.225,61.823
		c0-7.97-4.833-9.358-6.903-14.418"/>
	<path opacity="0.5" fill="none" stroke="#000000" stroke-width="0.5" stroke-miterlimit="10" d="M39.924,57.627
		c0,3.824,4.105,6.919,9.179,6.919"/>
	<path opacity="0.5" fill="none" stroke="#000000" stroke-width="0.5" stroke-miterlimit="10" d="M42.649,62.548
		c0-2.711,7.543-2.453,7.543-4.905"/>
	<path opacity="0.5" fill="none" stroke="#000000" stroke-width="0.5" stroke-miterlimit="10" d="M58.077,71.447
		c0-4.919-2.315-8.898-5.178-8.898"/>
	<path opacity="0.5" fill="none" stroke="#000000" stroke-width="0.5" stroke-miterlimit="10" d="M41.854,52.464
		c0,0.954-3.093,1.726-6.917,1.726"/>
	<path opacity="0.5" fill="none" stroke="#000000" stroke-width="0.5" stroke-miterlimit="10" d="M29.773,40.382
		c0,5.152,8.598,5.548,7.427,9.32"/>
	<path opacity="0.5" fill="none" stroke="#000000" stroke-width="0.5" stroke-miterlimit="10" d="M70.959,68.643
		c0-4.726-5.762-8.548-12.883-8.548"/>
	<path opacity="0.5" fill="none" stroke="#000000" stroke-width="0.5" stroke-miterlimit="10" d="M72.432,60.095
		c0-7.016-1.325-12.69-2.964-12.69"/>
	<path opacity="0.5" fill="none" stroke="#000000" stroke-width="0.5" stroke-miterlimit="10" d="M55.215,54.614
		c-4.081-0.424-2.734-4.911-6.113-4.911"/>
	<path opacity="0.5" fill="none" stroke="#000000" stroke-width="0.5" stroke-miterlimit="10" d="M64.519,49.703
		c0,4.38-2.881,7.925-6.442,7.925"/>
	<path opacity="0.5" fill="none" stroke="#000000" stroke-width="0.5" stroke-miterlimit="10" d="M43.973,44.181
		c0-4.313-4.807-7.801-10.749-7.801"/>
	<path opacity="0.5" fill="none" stroke="#000000" stroke-width="0.5" stroke-miterlimit="10" d="M24.25,29.337
		c7.939,0,0.464,14.034,17.604,10.078"/>
	<path opacity="0.5" fill="none" stroke="#000000" stroke-width="0.5" stroke-miterlimit="10" d="M33.052,20.241
		c0,8.92,8.546,16.139,19.107,16.139"/>
	<path opacity="0.5" fill="none" stroke="#000000" stroke-width="0.5" stroke-miterlimit="10" d="M7.681,68.694
		c-4.556,5.181,10.433,6.034,6.478,10.36"/>
	<path opacity="0.5" fill="none" stroke="#000000" stroke-width="0.5" stroke-miterlimit="10" d="M47.289,40.75
		c11.696,0,9.063,7.918,22.179,4.292"/>
	<path opacity="0.5" fill="none" stroke="#000000" stroke-width="0.5" stroke-miterlimit="10" d="M69.468,39.81
		c1.725,3.087-7.26-2.299-6.559-1.152"/>
	<path opacity="0.5" fill="none" stroke="#000000" stroke-width="0.5" stroke-miterlimit="10" d="M47.289,24.184
		c0-0.967-2.431-1.75-5.435-1.75"/>
	<path opacity="0.5" fill="none" stroke="#000000" stroke-width="0.5" stroke-miterlimit="10" d="M44.571,23.309
		c0,3.975,2.515,7.191,5.622,7.191"/>
	<path opacity="0.5" fill="none" stroke="#000000" stroke-width="0.5" stroke-miterlimit="10" d="M55.488,38.658
		c-2.589-5.876,7.421-8.173,7.421-11.753"/>
	<path opacity="0.5" fill="none" stroke="#000000" stroke-width="0.5" stroke-miterlimit="10" d="M62.909,31.646
		c3.279,1.135,4.142,5.864,8.283,3.513"/>
	<path opacity="0.5" fill="none" stroke="#000000" stroke-width="0.5" stroke-miterlimit="10" d="M71.192,27.957
		c0-2.087-2.985-3.773-6.674-3.773"/>
	<path opacity="0.5" fill="none" stroke="#000000" stroke-width="0.5" stroke-miterlimit="10" d="M70.331,15.181
		c0.861,7.253-12.254-1.376-11.132,2.217"/>
	<path opacity="0.5" fill="none" stroke="#000000" stroke-width="0.5" stroke-miterlimit="10" d="M62.909,17.271
		c0,3.338-2.162,6.038-4.833,6.038"/>
	<path opacity="0.5" fill="none" stroke="#000000" stroke-width="0.5" stroke-miterlimit="10" d="M47.289,11.948
		c0,6.763,3.441,12.235,7.693,12.235"/>
	<path opacity="0.5" fill="none" stroke="#000000" stroke-width="0.5" stroke-miterlimit="10" d="M54.982,9.731"/>
	<path opacity="0.5" fill="none" stroke="#000000" stroke-width="0.5" stroke-miterlimit="10" d="M58.077,3.173
		c0,2.401,2.161,4.342,4.833,4.342"/>
	<path opacity="0.5" fill="none" stroke="#000000" stroke-width="0.5" stroke-miterlimit="10" d="M64.765,12.457"/>
	<path opacity="0.5" fill="none" stroke="#000000" stroke-width="0.5" stroke-miterlimit="10" d="M59.867,6.549"/>
	<path opacity="0.5" fill="none" stroke="#000000" stroke-width="0.5" stroke-miterlimit="10" d="M62.316,11.665
		c0-2.292,2.799-4.149,6.259-4.149"/>
	<path opacity="0.5" fill="none" stroke="#000000" stroke-width="0.5" stroke-miterlimit="10" d="M37.363,16.289
		c0,1.647,2.365,2.979,5.287,2.979"/>
	<path opacity="0.5" fill="none" stroke="#000000" stroke-width="0.5" stroke-miterlimit="10" d="M52.898,10.7
		c0,4.735-1.825,8.568-4.083,8.568"/>
	<path opacity="0.5" fill="none" stroke="#000000" stroke-width="0.5" stroke-miterlimit="10" d="M6.94,42.463
		c-0.095,3.888,9.076-9.524,9.076-5.283"/>
	<path opacity="0.5" fill="none" stroke="#000000" stroke-width="0.5" stroke-miterlimit="10" d="M3.055,54.614
		c0,0,9.164-0.373,7.29-3.826"/>
	<path opacity="0.5" fill="none" stroke="#000000" stroke-width="0.5" stroke-miterlimit="10" d="M110.447,8.565
		c3.619,1.856-7.52,3.167-5.344,5.341"/>
	<path opacity="0.5" fill="none" stroke="#000000" stroke-width="0.5" stroke-miterlimit="10" d="M95.771,76.708
		c11.006-3.524,23.975-19.065,35.563-15.643"/>
	<path opacity="0.5" fill="none" stroke="#000000" stroke-width="0.5" stroke-miterlimit="10" d="M138.904,83.154
		c-4.906,0-4.906-9.97-14.475-6.528"/>
	<path opacity="0.5" fill="none" stroke="#000000" stroke-width="0.5" stroke-miterlimit="10" d="M145.952,61.823
		c0,5.32-13.25,5.176-11.954,9.624"/>
	<path opacity="0.5" fill="none" stroke="#000000" stroke-width="0.5" stroke-miterlimit="10" d="M119.746,91.753
		c0-4.753,4.169-11.567,8.336-8.6"/>
	<path opacity="0.5" fill="none" stroke="#000000" stroke-width="0.5" stroke-miterlimit="10" d="M115.814,92.583
		c1.712-5.948-5.19-12.692,1.712-12.692"/>
	<path opacity="0.5" fill="none" stroke="#000000" stroke-width="0.5" stroke-miterlimit="10" d="M108.897,91.753
		c0-2.828-3.241-5.118-7.247-5.118"/>
	<path opacity="0.5" fill="none" stroke="#000000" stroke-width="0.5" stroke-miterlimit="10" d="M110.624,79.891
		c0,4.181-2.255,7.562-5.042,7.562"/>
	<path opacity="0.5" fill="none" stroke="#000000" stroke-width="0.5" stroke-miterlimit="10" d="M117.526,75.246
		c0-4.208,2.858-7.611,6.389-7.611"/>
	<path opacity="0.5" fill="none" stroke="#000000" stroke-width="0.5" stroke-miterlimit="10" d="M131.667,77.5
		c0-8.666,1.035-13.134-7.237-15.678"/>
	<path opacity="0.5" fill="none" stroke="#000000" stroke-width="0.5" stroke-miterlimit="10" d="M95.536,80.186
		c0-1.969,4.494-3.561,10.046-3.561"/>
	<path opacity="0.5" fill="none" stroke="#000000" stroke-width="0.5" stroke-miterlimit="10" d="M108.103,69.662
		c0,3.894,2.437,7.047,5.45,7.047"/>
	<path opacity="0.5" fill="none" stroke="#000000" stroke-width="0.5" stroke-miterlimit="10" d="M138.904,61.066
		c0-3.802-5.549-6.876-12.403-6.876"/>
	<path opacity="0.5" fill="none" stroke="#000000" stroke-width="0.5" stroke-miterlimit="10" d="M126.501,38.658
		c-3.16,5.532,10.846,6.283,12.403,11.045"/>
	<path opacity="0.5" fill="none" stroke="#000000" stroke-width="0.5" stroke-miterlimit="10" d="M117.526,61.823
		c0-7.97,4.834-9.358,6.903-14.418"/>
	<path opacity="0.5" fill="none" stroke="#000000" stroke-width="0.5" stroke-miterlimit="10" d="M110.826,57.627
		c0,3.824-4.104,6.919-9.176,6.919"/>
	<path opacity="0.5" fill="none" stroke="#000000" stroke-width="0.5" stroke-miterlimit="10" d="M108.103,62.548
		c0-2.711-7.544-2.453-7.544-4.905"/>
	<path opacity="0.5" fill="none" stroke="#000000" stroke-width="0.5" stroke-miterlimit="10" d="M92.676,71.447
		c0-4.919,2.314-8.898,5.178-8.898"/>
	<path opacity="0.5" fill="none" stroke="#000000" stroke-width="0.5" stroke-miterlimit="10" d="M108.897,52.464
		c0,0.954,3.095,1.726,6.917,1.726"/>
	<path opacity="0.5" fill="none" stroke="#000000" stroke-width="0.5" stroke-miterlimit="10" d="M120.978,40.382
		c0,5.152-8.597,5.548-7.425,9.32"/>
	<path opacity="0.5" fill="none" stroke="#000000" stroke-width="0.5" stroke-miterlimit="10" d="M78.319,60.095
		c0-7.016,1.326-12.69,2.965-12.69"/>
	<path opacity="0.5" fill="none" stroke="#000000" stroke-width="0.5" stroke-miterlimit="10" d="M95.536,54.614
		c4.08-0.424,2.733-4.911,6.114-4.911"/>
	<path opacity="0.5" fill="none" stroke="#000000" stroke-width="0.5" stroke-miterlimit="10" d="M86.233,49.703
		c0,4.38,2.882,7.925,6.442,7.925"/>
	<path opacity="0.5" fill="none" stroke="#000000" stroke-width="0.5" stroke-miterlimit="10" d="M106.777,44.181
		c0-4.313,4.811-7.801,10.749-7.801"/>
	<path opacity="0.5" fill="none" stroke="#000000" stroke-width="0.5" stroke-miterlimit="10" d="M126.501,29.337
		c-7.938,0-0.463,14.034-17.604,10.078"/>
	<path opacity="0.5" fill="none" stroke="#000000" stroke-width="0.5" stroke-miterlimit="10" d="M117.7,20.241
		c0,8.92-8.547,16.139-19.107,16.139"/>
	<path opacity="0.5" fill="none" stroke="#000000" stroke-width="0.5" stroke-miterlimit="10" d="M143.07,68.694
		c4.555,5.181-10.433,6.034-6.478,10.36"/>
	<path opacity="0.5" fill="none" stroke="#000000" stroke-width="0.5" stroke-miterlimit="10" d="M103.463,40.75
		c-11.696,0-9.063,7.918-22.179,4.292"/>
	<path opacity="0.5" fill="none" stroke="#000000" stroke-width="0.5" stroke-miterlimit="10" d="M81.284,39.81
		c-1.726,3.087,7.26-2.299,6.559-1.152"/>
	<path opacity="0.5" fill="none" stroke="#000000" stroke-width="0.5" stroke-miterlimit="10" d="M103.463,24.184
		c0-0.967,2.432-1.75,5.435-1.75"/>
	<path opacity="0.5" fill="none" stroke="#000000" stroke-width="0.5" stroke-miterlimit="10" d="M106.181,23.309
		c0,3.975-2.516,7.191-5.622,7.191"/>
	<path opacity="0.5" fill="none" stroke="#000000" stroke-width="0.5" stroke-miterlimit="10" d="M95.264,38.658
		c2.59-5.876-7.421-8.173-7.421-11.753"/>
	<path opacity="0.5" fill="none" stroke="#000000" stroke-width="0.5" stroke-miterlimit="10" d="M87.843,31.646
		c-3.278,1.135-4.142,5.864-8.284,3.513"/>
	<path opacity="0.5" fill="none" stroke="#000000" stroke-width="0.5" stroke-miterlimit="10" d="M79.559,27.957
		c0-2.087,2.985-3.773,6.675-3.773"/>
	<path opacity="0.5" fill="none" stroke="#000000" stroke-width="0.5" stroke-miterlimit="10" d="M80.421,15.181
		c-0.862,7.253,12.255-1.376,11.133,2.217"/>
	<path opacity="0.5" fill="none" stroke="#000000" stroke-width="0.5" stroke-miterlimit="10" d="M87.843,17.271
		c0,3.338,2.16,6.038,4.833,6.038"/>
	<path opacity="0.5" fill="none" stroke="#000000" stroke-width="0.5" stroke-miterlimit="10" d="M103.463,11.948
		c0,6.763-3.44,12.235-7.691,12.235"/>
	<path opacity="0.5" fill="none" stroke="#000000" stroke-width="0.5" stroke-miterlimit="10" d="M95.771,9.731"/>
	<path opacity="0.5" fill="none" stroke="#000000" stroke-width="0.5" stroke-miterlimit="10" d="M92.676,3.173
		c0,2.401-2.162,4.342-4.833,4.342"/>
	<path opacity="0.5" fill="none" stroke="#000000" stroke-width="0.5" stroke-miterlimit="10" d="M85.987,12.457"/>
	<path opacity="0.5" fill="none" stroke="#000000" stroke-width="0.5" stroke-miterlimit="10" d="M90.884,6.549"/>
	<path opacity="0.5" fill="none" stroke="#000000" stroke-width="0.5" stroke-miterlimit="10" d="M88.436,11.665
		c0-2.292-2.8-4.149-6.26-4.149"/>
	<path opacity="0.5" fill="none" stroke="#000000" stroke-width="0.5" stroke-miterlimit="10" d="M113.39,16.289
		c0,1.647-2.366,2.979-5.287,2.979"/>
	<path opacity="0.5" fill="none" stroke="#000000" stroke-width="0.5" stroke-miterlimit="10" d="M97.854,10.7
		c0,4.735,1.825,8.568,4.083,8.568"/>
</g>
</svg>
