<?xml version="1.0" encoding="iso-8859-1"?>
<!-- Generator: Adobe Illustrator 19.0.0, SVG Export Plug-In . SVG Version: 6.00 Build 0)  -->
<svg version="1.1" id="Layer_1" xmlns="http://www.w3.org/2000/svg" xmlns:xlink="http://www.w3.org/1999/xlink" x="0px" y="0px"
	 viewBox="0 0 512 512" style="enable-background:new 0 0 512 512;" xml:space="preserve">
<g>
	<path style="fill:#F1F2F2;" d="M294.355,306.781c0,0,14.272-74.719,78.495-74.719S469.184,356.594,512,356.594
		c0,0-11.596,24.016-43.707,12.453c0,0,11.595,16.9,25.867,17.789c14.272,0.89-145.393,56.039-192.669-48.033"/>
	<path style="fill:#F1F2F2;" d="M217.644,306.781c0,0-14.272-74.719-78.495-74.719S42.815,356.594,0,356.594
		c0,0,11.596,24.016,43.707,12.453c0,0-11.595,16.9-25.867,17.789c-14.272,0.89,145.393,56.039,192.669-48.033"/>
</g>
<g>
	<path style="opacity:0.1;fill:#414042;enable-background:new    ;" d="M323.841,349.624l-7.136-32.022
		c0,0,14.272-74.719,78.495-74.719c4.032,0,7.931,0.515,11.72,1.436c-10.356-7.56-21.607-12.257-34.069-12.257
		c-64.223,0-78.495,74.719-78.495,74.719l7.136,32.022c12.191,26.836,31.854,43.084,54.081,52.408
		c-2.189-2.163-4.296-4.464-6.324-6.895C339.126,375.436,330.401,364.065,323.841,349.624z"/>
	<path style="opacity:0.1;fill:#414042;enable-background:new    ;" d="M22.096,367.415c42.816,0,74.928-124.531,139.149-124.531
		c7.181,0,13.733,0.939,19.713,2.6c-10.76-7.962-24.459-13.422-41.81-13.422C74.926,232.062,42.815,356.593,0,356.593
		c0,0,7.044,14.579,25.346,15.546C23.111,369.499,22.096,367.415,22.096,367.415z"/>
</g>
<path style="fill:#00B494;" d="M389.915,461.884l-98.877-207.973h-70.076l-98.877,207.973c-3.848,8.093-3.265,17.585,1.543,25.151
	c4.81,7.567,13.174,12.153,22.165,12.153h220.412c8.991,0,17.357-4.587,22.165-12.153
	C393.179,479.469,393.762,469.977,389.915,461.884z"/>
<path style="opacity:0.1;fill:#414042;enable-background:new    ;" d="M157.497,487.035c-4.809-7.566-5.391-17.058-1.543-25.151
	l98.878-207.973h-33.87l-98.877,207.973c-3.848,8.093-3.265,17.585,1.543,25.151c4.81,7.567,13.174,12.153,22.165,12.153h33.869
	C170.672,499.189,162.307,494.602,157.497,487.035z"/>
<ellipse style="fill:#F4AE69;" cx="256" cy="175.794" rx="105.556" ry="101.24"/>
<path style="opacity:0.1;fill:#414042;enable-background:new    ;" d="M172.358,175.795c0-52.332,41.397-95.387,94.495-100.691
	c-3.57-0.352-7.186-0.553-10.853-0.553c-58.299,0-105.559,45.328-105.559,101.243c0,55.915,47.26,101.243,105.559,101.243
	c3.668,0,7.284-0.201,10.854-0.552C213.755,271.182,172.358,228.126,172.358,175.795z"/>
<path style="fill:#F0D355;" d="M256,60.598c-6.576,0-64.239-0.671-64.239-23.894c0-23.222,57.664-23.893,64.239-23.893
	c6.575,0,64.238,0.671,64.238,23.893C320.238,59.929,262.574,60.598,256,60.598z M210.132,36.706
	c5.967,3.189,21.866,7.417,45.868,7.417s39.899-4.228,45.868-7.417c-5.968-3.189-21.867-7.417-45.868-7.417
	S216.101,33.517,210.132,36.706z"/>
<path style="fill:#FFE2C5;" d="M292.843,185.631c-15.745,0-29.323-9.196-35.66-22.491h-4.348
	c-7.229,9.164-18.445,15.054-31.044,15.054c-11.364,0-21.6-4.796-28.803-12.458v56.603c0,34.657,28.211,62.752,63.01,62.752
	s63.01-28.094,63.01-62.752v-46.609C312.044,181.886,302.885,185.631,292.843,185.631z"/>
<path style="opacity:0.1;fill:#414042;enable-background:new    ;" d="M215.04,222.339v-44.73
	c-8.634-1.487-16.308-5.765-22.05-11.874v56.603c0,34.657,28.211,62.752,63.01,62.752c3.766,0,7.45-0.34,11.033-0.976
	C237.49,278.923,215.04,253.251,215.04,222.339z"/>
<g>
	<ellipse style="fill:#636052;" cx="225.541" cy="219.554" rx="11.421" ry="11.374"/>
	<ellipse style="fill:#636052;" cx="286.459" cy="219.554" rx="11.421" ry="11.374"/>
</g>
<g>
</g>
<g>
</g>
<g>
</g>
<g>
</g>
<g>
</g>
<g>
</g>
<g>
</g>
<g>
</g>
<g>
</g>
<g>
</g>
<g>
</g>
<g>
</g>
<g>
</g>
<g>
</g>
<g>
</g>
</svg>
