<?xml version="1.0" encoding="iso-8859-1"?>
<!-- Generator: Adobe Illustrator 19.0.0, SVG Export Plug-In . SVG Version: 6.00 Build 0)  -->
<svg version="1.1" id="Layer_1" xmlns="http://www.w3.org/2000/svg" xmlns:xlink="http://www.w3.org/1999/xlink" x="0px" y="0px"
	 viewBox="0 0 512 512" style="enable-background:new 0 0 512 512;" xml:space="preserve">
<circle style="fill:#FF8E31;" cx="256" cy="256" r="256"/>
<path style="fill:#ED7425;" d="M395.41,239.762l-3.364-3.364c-5.358-4.928-11.686-8.86-18.706-11.612l-0.164-0.161l-16.31-16.351
	l-5.34-6.328c-2.673-3.182-5.814-5.998-9.4-8.371l-9.692-9.731c-1.495-1.866-3.218-3.551-5.084-5.082
	c-5.814-4.685-13.194-7.501-21.281-7.501c-17.006,0-31.124,12.582-33.5,28.966c-1.242,0.878-2.524,1.682-3.986,2.266
	c-2.785,1.172-7.168,1.687-9.984,1.687h-5.158c-0.207,0-0.468-0.026-0.686-0.028l-0.01-0.01l-21.699-21.699
	c-0.842-0.927-1.72-1.825-2.655-2.655l-0.187-0.187c-4.47-3.894-9.971-6.641-16.033-7.764c-2.028-0.379-4.106-0.576-6.241-0.576
	c-13.455,0-25.052,7.831-30.5,19.167c-5.924,2.816-10.975,6.764-14.958,11.517l-17.989,21.391c-1.759,0.558-3.469,1.201-5.14,1.905
	c-0.415,0.172-0.804,0.379-1.216,0.561c-1.239,0.556-2.468,1.124-3.658,1.756c-0.492,0.261-0.96,0.556-1.441,0.829
	c-1.068,0.604-2.127,1.221-3.146,1.889c-0.509,0.33-0.991,0.686-1.49,1.029c-0.955,0.668-1.9,1.344-2.813,2.061
	c-0.489,0.387-0.96,0.788-1.436,1.188c-0.876,0.73-1.736,1.482-2.563,2.26c-0.448,0.422-0.886,0.852-1.321,1.285
	c-0.822,0.822-1.623,1.669-2.396,2.537c-0.376,0.422-0.748,0.842-1.111,1.277c-0.814,0.965-1.595,1.956-2.345,2.972
	c-0.261,0.351-0.527,0.701-0.781,1.065c-0.282,0.394-0.589,0.763-0.855,1.162c0,0,0,0,0,0.036l0.041,0.046
	c-8.637,12.892-12.357,29.071-9.004,45.491c0.323,1.582,0.717,3.126,1.152,4.652c0.125,0.428,0.274,0.842,0.407,1.265
	c2.767,8.876,7.442,16.735,13.509,23.194c0.84,0.878,1.72,1.754,2.596,2.596l183.276,183.276
	c90.532-16.714,164.347-81.011,194.527-166.031L395.41,239.762z"/>
<g>
	<path style="fill:#34495E;" d="M339.963,205.156c0,18.716-15.171,33.889-33.889,33.889c-18.708,0-33.884-15.173-33.884-33.889
		c0-18.711,15.178-33.887,33.884-33.887C324.792,171.269,339.963,186.447,339.963,205.156z"/>
	<path style="fill:#34495E;" d="M239.823,205.156c0,18.716-15.173,33.889-33.894,33.889c-18.706,0-33.884-15.173-33.884-33.889
		c0-18.711,15.178-33.887,33.884-33.887C224.648,171.269,239.823,186.447,239.823,205.156z"/>
</g>
<path style="fill:#5D6D7E;" d="M351.516,201.961c-4.088-4.859-9.265-8.94-15.411-11.794c-6.131-2.862-14.945-4.196-23.619-4.196
	h-3.799c-16.471,0-25.897,6.482-32.847,11.735c-2.273,1.72-4.46,3.651-7.245,4.803c-2.798,1.152-7.178,1.684-10.017,1.684
	c-0.604,0-4.552,0-5.148,0c-2.849,0-7.219-0.532-10.015-1.684c-2.796-1.152-4.984-3.085-7.255-4.803
	c-6.95-5.253-16.379-11.735-32.847-11.735h-3.799c-8.676,0-17.477,1.334-23.619,4.196c-6.136,2.854-11.313,6.935-15.409,11.794
	l-56.361,67.026h151.88h151.872L351.516,201.961z"/>
<path style="fill:#283A4D;" d="M302.38,237.527c-1.994,0-4.001,0.092-6.019,0.279c-2.028,0.182-4.009,0.463-5.967,0.832
	l-20.032,3.748c-4.649,0.878-9.446,1.341-14.359,1.341c-4.908,0-9.71-0.463-14.367-1.341l-20.017-3.748
	c-1.958-0.361-3.95-0.65-5.962-0.832c-2.028-0.189-4.037-0.279-6.026-0.279h-10.028v56.402h16.425c2.747,0,5.514-0.589,8.141-1.853
	c2.634-1.265,4.828-3.062,6.531-5.197l9.692-12.096c3.668-4.575,9.298-7.501,15.608-7.501c6.303,0,11.932,2.926,15.588,7.501
	l9.705,12.096c1.72,2.135,3.896,3.932,6.543,5.197c2.614,1.262,5.396,1.853,8.128,1.853h16.433v-56.402H302.38z"/>
<path style="fill:#5D6D7E;" d="M273.357,267.192c0,9.572-7.759,17.352-17.354,17.352c-9.585,0-17.354-7.78-17.354-17.352
	c0-9.6,7.77-17.362,17.354-17.362C265.597,249.83,273.357,257.595,273.357,267.192z"/>
<path style="fill:#283A4D;" d="M261.67,267.192c0,3.126-2.537,5.66-5.665,5.66c-3.136,0-5.66-2.534-5.66-5.66
	c0-3.133,2.524-5.676,5.66-5.676C259.133,261.517,261.67,264.059,261.67,267.192z"/>
<g>
	<path style="fill:#34495E;" d="M172.721,339.502c-32.509,6.651-64.266-14.318-70.917-46.835
		c-6.656-32.52,14.316-64.279,46.848-70.93c32.509-6.651,64.276,14.321,70.927,46.84C226.23,301.1,205.251,332.856,172.721,339.502z
		"/>
	<path style="fill:#34495E;" d="M339.279,339.502c32.517,6.651,64.266-14.318,70.917-46.835c6.653-32.52-14.318-64.279-46.843-70.93
		c-32.517-6.651-64.274,14.321-70.925,46.84C285.778,301.1,306.755,332.856,339.279,339.502z"/>
</g>
<path style="fill:#B8D1E6;" d="M160.689,326.177c-25.129,0-45.548-20.429-45.548-45.558c0-25.119,20.419-45.56,45.548-45.56
	c25.126,0,45.553,20.442,45.553,45.56C206.241,305.748,185.815,326.177,160.689,326.177z"/>
<path style="fill:#E1EFFA;" d="M160.689,319.672c-21.54,0-39.04-17.513-39.04-39.053c0-21.532,17.5-39.048,39.04-39.048
	c21.535,0,39.048,17.516,39.048,39.048C199.736,302.159,182.223,319.672,160.689,319.672z"/>
<path style="fill:#B8D1E6;" d="M351.316,326.177c-25.132,0-45.553-20.429-45.553-45.558c0-25.119,20.421-45.56,45.553-45.56
	c25.121,0,45.55,20.442,45.55,45.56C396.867,305.748,376.44,326.177,351.316,326.177z"/>
<path style="fill:#E1EFFA;" d="M351.316,319.672c-21.54,0-39.04-17.513-39.04-39.053c0-21.532,17.5-39.048,39.04-39.048
	c21.54,0,39.043,17.516,39.043,39.048C390.359,302.159,372.856,319.672,351.316,319.672z"/>
<g>
	<path style="fill:#FFFFFF;" d="M156.39,249.705c6.223,6.231,5.274,17.277-2.122,24.671c-7.411,7.404-18.45,8.353-24.676,2.125
		c-6.218-6.218-5.271-17.26,2.13-24.668C139.128,244.436,150.17,243.482,156.39,249.705z"/>
	<path style="fill:#FFFFFF;" d="M190.981,301.066c2.332,2.327,1.976,6.461-0.794,9.234c-2.772,2.76-6.907,3.126-9.234,0.799
		c-2.322-2.33-1.966-6.464,0.794-9.236C184.52,299.09,188.649,298.734,190.981,301.066z"/>
	<path style="fill:#FFFFFF;" d="M347.402,249.705c6.221,6.231,5.271,17.277-2.135,24.678c-7.401,7.396-18.435,8.346-24.663,2.127
		c-6.223-6.228-5.274-17.27,2.122-24.671C330.135,244.436,341.176,243.489,347.402,249.705z"/>
	<path style="fill:#FFFFFF;" d="M381.98,301.066c2.332,2.327,1.981,6.461-0.794,9.234c-2.775,2.76-6.897,3.118-9.226,0.791
		c-2.332-2.322-1.974-6.456,0.786-9.229C375.526,299.09,379.661,298.734,381.98,301.066z"/>
</g>
<g>
</g>
<g>
</g>
<g>
</g>
<g>
</g>
<g>
</g>
<g>
</g>
<g>
</g>
<g>
</g>
<g>
</g>
<g>
</g>
<g>
</g>
<g>
</g>
<g>
</g>
<g>
</g>
<g>
</g>
</svg>
