<?xml version="1.0" encoding="iso-8859-1"?>
<!-- Generator: Adobe Illustrator 19.0.0, SVG Export Plug-In . SVG Version: 6.00 Build 0)  -->
<svg version="1.1" id="Layer_1" xmlns="http://www.w3.org/2000/svg" xmlns:xlink="http://www.w3.org/1999/xlink" x="0px" y="0px"
	 viewBox="0 0 512.002 512.002" style="enable-background:new 0 0 512.002 512.002;" xml:space="preserve">
<path style="fill:#47CEAC;" d="M0.001,256.006c0,141.395,114.606,255.998,255.996,255.994
	c141.398,0.004,256.004-114.598,256.004-255.994C512.01,114.61,397.395,0,255.997,0C114.607,0,0.001,114.614,0.001,256.006z"/>
<path style="fill:#36BB9A;" d="M512.001,256.005c0.001-6.064-0.286-12.059-0.701-18.017c-0.371-0.373-100.721-100.7-101.211-101.211
	c-3.455-3.825-7.513-7.424-12.188-10.731c-0.372-0.365-43.061-43.061-43.577-43.542c-9.117-9.104-18.486-13.072-18.628-13.133
	c-35.465-14.3-66.07,9.931-79.921,25.166c-0.43-0.447-3.908-3.89-4.43-4.412c-11.909-12.395-31.398-26.484-58.742-26.734
	c-35.71,0-60.784,21.132-68.827,57.995c-14.21,4.757-27.966,16.06-31.737,36.777c-1.211,7.164-1.442,22.426,5.408,32.474
	c-0.893,0.964-1.751,1.967-2.579,3.025c-7.634,9.719-11.801,22.347-11.431,34.621c0.588,20.48,12.004,35.804,19.467,43.682
	c-0.028,0.023-0.051,0.047-0.075,0.07c-9.641,9.163-15.998,21.626-18.372,36.039c-2.077,12.431-1.039,26.046,3.002,39.362
	c2.361,7.785,8.172,22.34,20.31,35.328c0.461,0.518,28.14,28.113,28.526,28.53c2.93,7.055,8.098,14.501,16.503,22.628
	c0.052,0.051,0.116,0.086,0.169,0.137c0.462,0.462,0.865,0.913,1.347,1.379c0.052,0.051,73.83,73.846,74.314,74.314
	c0.052,0.051,0.116,0.087,0.17,0.138c0.253,0.253,0.497,0.505,0.738,0.754c8.7,0.893,17.526,1.358,26.462,1.358
	C397.395,512.004,512.001,397.401,512.001,256.005z"/>
<g>
	<path style="fill:#FFFFFF;" d="M427.754,284.696c0.16-15.529-6.884-29.617-17.851-35.941c-0.88-0.561-1.841-1.041-2.801-1.441
		c8.885-12.808,15.289-27.136,18.891-42.345c6.084-26.255,0.801-74.443-55.952-91.653c-0.64-3.682-1.681-7.284-3.042-10.806
		c-9.365-23.453-31.539-32.579-31.779-32.659c-35.541-14.328-66.198,10.166-79.886,25.295
		c-11.206-13.128-32.019-30.978-62.836-31.298c-35.621,0-60.595,21.132-68.599,57.873c-14.168,4.722-27.856,16.009-31.618,36.661
		c-1.201,7.124-1.441,22.333,5.363,32.419c-0.88,0.961-1.761,1.921-2.561,3.042c-7.684,9.846-11.687,22.012-11.446,34.5
		c0.561,20.412,12.007,35.7,19.451,43.545l-0.08,0.08c-9.606,9.125-15.929,21.532-18.331,35.941
		c-2.081,12.407-1.041,26.015,2.962,39.223c3.602,11.927,15.129,40.023,45.867,53.551c1.361,10.006,6.724,20.652,19.291,32.739
		c14.808,14.249,38.102,16.81,54.752,12.967c17.53-4.482,32.979-12.568,44.345-23.134c2.321,2.401,4.883,4.643,7.604,6.564
		c16.009,11.847,35.381,18.251,55.312,18.331c21.372,0,40.983-7.525,53.711-19.611c2.482-2.321,4.722-4.803,6.804-7.444
		c2.642-3.362,4.163-8.084,4.323-13.208c27.776-2.722,38.983-24.734,40.023-45.626c0.4-8.725-3.602-19.211-10.726-26.175
		C429.115,315.514,427.914,287.578,427.754,284.696z M393.334,328.802h-0.08c-4.803,0-9.446,1.521-13.288,4.242
		c-5.363,3.923-9.045,9.765-10.086,16.329c-0.08,0.4-0.16,0.801-0.24,1.12c-1.041-1.201-1.921-2.561-2.561-4.002
		c-8.405-17.61-22.012-28.977-39.463-33.059c-9.446-2.161-19.451-1.921-29.777,0.64c-4.323,1.041-6.884,5.443-5.844,9.686
		c1.041,4.242,5.443,6.884,9.686,5.844c7.284-1.921,14.969-2.161,22.333-0.561c12.647,2.962,22.333,11.127,28.577,24.254
		c6.163,13.208,14.969,14.168,19.691,13.528c2.001-0.32,3.842-0.88,5.683-1.761c0.72-0.32,1.441-0.72,2.081-1.201
		c2.001-1.281,3.442-3.282,3.922-5.604c0.801-2.081,1.361-4.242,1.681-6.403c0.32-2.321,1.601-4.403,3.522-5.763
		c1.361-1.041,3.042-1.521,4.722-1.361c5.523,1.441,10.326,10.566,10.086,16.65c-0.561,11.127-4.963,29.377-27.536,30.657
		c-3.762-7.684-10.566-13.528-18.731-16.249c-4.242-1.361-8.725,0.88-10.086,5.123c-1.361,4.242,0.88,8.725,5.123,10.086
		c5.123,1.601,9.045,5.683,10.486,10.806c1.361,4.563,0.561,8.325-0.16,9.206c-1.601,2.081-3.442,4.002-5.363,5.844
		c-18.891,17.93-57.233,22.813-88.692,0c-3.923-2.801-7.204-6.244-9.926-10.166c-1.441-2.081-3.682-3.362-6.244-3.522h-0.4
		c-2.401,0-4.643,1.041-6.163,2.882c-9.525,11.367-24.734,20.252-42.585,24.815c-11.927,2.722-29.537,1.12-39.943-8.885
		c-9.285-8.965-13.528-15.929-14.489-22.973c-0.381-2.837-0.225-4.025,0-6.964c0.88-6.644,4.002-13.928,8.084-23.213
		c0.16-0.32,0.24-0.561,0.32-0.88c6.564-21.532-3.042-30.098-10.006-36.341c-6.484-5.844-10.806-9.606-6.724-25.615
		c1.201-4.242-1.201-8.725-5.523-9.926c-4.242-1.201-8.725,1.201-9.926,5.523c-0.08,0.16-0.08,0.32-0.16,0.48
		c-6.403,25.455,3.923,34.74,11.527,41.544c5.844,5.283,8.885,7.925,5.523,19.291c-3.122,7.124-6.084,13.848-7.844,20.732
		c-20.012-11.046-28.577-29.858-31.938-41.064c-3.362-10.966-4.163-22.012-2.561-32.019c1.841-10.966,6.484-20.252,13.608-26.976
		c4.322-4.082,9.606-7.204,15.289-9.125c6.324-2.161,13.048-2.962,19.691-2.242c8.245,0.961,16.009,4.563,22.173,10.166
		c6.484,6.003,11.127,13.608,13.608,22.093c2.401,8.005,3.202,16.729,2.321,26.575c-0.08,6.644-1.201,13.288-3.202,19.611
		c-1.281,4.242,1.12,8.725,5.363,10.006c1.281,0.4,2.722,0.4,4.082,0.16c6.163-1.441,11.046-0.24,14.328,3.442
		c3.923,4.403,5.283,12.007,3.282,17.77c-1.841,5.283-5.283,8.565-9.846,9.686c-5.443,1.281-12.007-0.64-16.729-5.123
		c-3.442-2.801-8.485-2.242-11.287,1.201c-2.482,3.122-2.401,7.604,0.32,10.486c8.645,8.165,20.732,11.607,31.458,8.965
		c9.926-2.401,17.45-9.446,21.213-19.932c4.002-11.206,1.361-25.055-6.403-33.779c-4.563-5.203-10.887-8.485-17.77-9.206
		c0.72-4.163,1.12-8.325,1.201-12.487c1.12-10.806,0.08-21.693-2.962-32.019c-3.282-11.287-9.606-21.372-18.17-29.297
		c-8.805-7.925-19.851-12.967-31.618-14.248c-0.48-0.08-0.961,0-1.441-0.08c-3.842-5.363-9.765-22.012-7.284-30.898
		c1.361-4.563-1.521-9.446-6.403-10.246c-2.161-0.4-4.482,0.24-6.244,1.681c-1.441,1.12-2.401,2.561-2.801,4.163
		c-3.042,10.566,0.32,25.535,5.203,36.421c-2.401,0.48-4.803,1.12-7.124,1.921c-2.722,0.88-5.363,2.001-7.925,3.282
		c-5.283-5.203-16.249-17.851-16.729-34.82c-0.16-8.725,2.642-17.29,8.005-24.174c1.12-1.441,2.321-2.722,3.682-3.923
		c2.846-2.182,7.349-5.058,12.167-6.484c2.321-0.64,4.643-0.961,7.044-1.12c2.321-0.16,4.563-0.16,6.884,0.08
		c18.17,1.841,23.134,10.406,26.335,16.089c0.16,0.24,0.4,0.4,0.561,0.64c1.281,2.561,6.644,14.889,2.642,32.739
		c-0.961,4.322,1.761,8.565,6.084,9.525c1.441,0.32,2.962,0.24,4.323-0.24c2.722-0.88,4.643-3.282,5.283-6.084
		c3.442-15.849,1.12-28.417-1.361-36.181c5.363-1.201,10.887-1.041,16.089,0.561c3.762,1.12,7.364,2.722,10.726,4.883
		c4.563,2.882,8.245,6.964,10.646,11.767c2.642,5.443,3.122,11.687,1.361,17.45c-0.88,2.962-2.161,5.844-3.842,8.405
		c-3.522,5.363-4.722,10.486-3.522,15.129c0.561,5.283,3.682,9.846,6.884,14.648c7.124,10.406,14.408,21.132-1.361,41.944
		c-2.642,3.522-2.001,8.565,1.521,11.206s8.565,2.001,11.206-1.521c22.733-30.017,9.606-49.228,1.841-60.675
		c-1.601-2.401-4.082-6.003-4.242-7.284c0-0.64-0.08-1.281-0.32-1.841c0,0,0.08-0.88,1.361-2.882
		c2.561-3.923,4.563-8.165,5.844-12.727c2.882-9.525,2.001-19.851-2.321-28.817c-3.682-7.364-9.285-13.688-16.249-18.17
		c-4.643-3.042-9.765-5.363-15.048-6.884c-9.206-2.722-18.971-2.561-28.096,0.4c-4.482-6.163-12.727-13.928-28.736-17.05
		c-1.361-4.482-2.242-14.889,0.24-19.291c2.081-3.923,0.64-8.725-3.282-10.887c-3.762-2.001-8.485-0.72-10.726,2.962
		c-3.923,6.964-4.323,17.61-2.801,26.175c-6.324,0.48-12.487,2.161-18.17,4.963c-2.801-4.883-3.362-14.489-2.482-20.012
		c4.242-23.534,26.335-25.935,30.657-26.175c6.003-0.32,12.007,0.88,17.53,3.362c8.645,4.002,15.209,11.127,20.012,21.853
		c6.244,13.848,18.971,22.012,32.419,20.652c12.967-1.281,23.134-10.646,26.415-24.494c1.521-6.484,1.201-16.249-4.482-24.334
		c-3.522-4.963-10.486-11.287-23.774-12.808c-2.081-0.24-6.163-1.441-8.245-4.322c-1.601-2.161-1.921-5.363-1.041-9.365
		c1.281-5.363-3.122-10.726-9.365-9.765c-0.801,0.16-1.601,0.4-2.321,0.801c-2.161,1.281-3.522,3.282-4.002,5.603
		c-2.321,10.726,0.72,17.93,3.682,22.093c6.244,8.805,16.41,10.566,19.371,10.966c5.923,0.72,10.166,2.722,12.487,6.084
		c2.801,4.002,2.561,9.206,2.081,11.446c-1.681,7.124-6.324,11.686-12.327,12.247c-5.203,0.48-12.167-2.242-16.249-11.287
		c-6.403-14.248-15.849-24.254-28.016-29.858c-6.804-3.122-14.248-4.803-21.772-4.883c9.525-32.098,32.979-39.143,51.47-39.143
		c30.738,0.32,49.549,23.053,56.273,32.819c1.521,2.321,4.163,3.602,6.884,3.522c2.722-0.08,5.283-1.521,6.644-3.923
		c0.24-0.48,30.338-42.505,67.159-27.616c0.16,0.08,16.249,7.204,22.813,23.774c4.722,11.847,3.362,25.855-4.002,41.704
		c-11.206,26.095-10.246,42.184-7.525,50.829c4.803,17.61,19.211,24.334,30.578,22.973c12.808-1.441,21.933-12.007,22.413-25.455
		c0.16-4.963-1.521-9.206-3.042-12.887c-2.642-6.564-3.522-8.805,2.722-14.248c3.362-2.882,3.682-8.005,0.72-11.287
		c-2.882-3.362-8.005-3.682-11.287-0.72c-14.808,12.967-9.926,25.055-6.964,32.338c0.961,2.482,1.921,4.803,1.921,6.324
		c-0.24,6.724-4.403,9.606-8.245,10.086c-4.563,0.561-10.726-2.081-13.367-11.527c-1.601-5.203-2.882-17.21,6.804-39.783
		c4.002-8.325,6.564-17.13,7.765-26.255c40.743,15.129,44.586,51.15,39.943,71.081c-3.442,14.808-10.006,28.496-20.012,41.864
		c-0.72,0.961-1.201,2.001-1.441,3.122c-3.042,0.88-5.923,2.161-8.565,3.762c-3.282,1.921-6.724,1.921-10.166-0.24
		c-4.002-2.401-6.484-6.804-6.324-9.285c0.32-4.403-2.962-8.245-7.444-8.565c0,0,0,0-0.08,0c-4.403-0.24-8.165,3.122-8.565,7.525
		c-0.561,8.805,5.203,18.651,13.928,24.014c8.565,5.203,18.331,5.363,26.815,0.32c5.043-2.962,9.525-3.362,13.367-1.201
		c5.844,3.362,9.926,12.407,9.846,22.573C411.986,286.217,413.506,312.953,393.334,328.802z"/>
	<path style="fill:#FFFFFF;" d="M385.89,274.37c-4.403,0.72-7.364,4.803-6.644,9.206c1.441,8.805-0.16,15.449-4.482,18.571
		c-3.202,2.242-7.284,2.561-10.806,0.801c-4.722-2.401-6.964-9.125-6.964-20.492c0-14.729-8.725-25.134-22.333-26.335
		c-0.48-0.08-1.041-0.08-1.521,0c-24.254,2.321-24.894,24.974-25.215,34.66c-0.08,1.521-0.08,2.882-0.16,4.002
		c-0.4,4.403,2.882,8.325,7.284,8.645c4.323,0.48,8.245-2.722,8.645-7.044c0-0.08,0-0.16,0-0.24c0.16-1.441,0.16-3.122,0.24-4.963
		c0.4-13.048,2.001-18.091,10.006-19.131c2.401,0.32,7.044,1.681,7.044,10.326c0,6.564,0,26.655,15.689,34.74
		c8.805,4.482,19.451,3.682,27.536-2.081c5.523-4.002,14.248-13.688,10.887-34.1C394.375,276.611,390.213,273.649,385.89,274.37z"/>
	<path style="fill:#FFFFFF;" d="M293.677,274.771c-2.561,3.122-6.244,4.963-10.246,5.203c-4.964,0.907-13.448-0.75-13.448-6.084
		c-0.24-6.884-0.64-14.168-1.281-22.093l-0.08-0.88c-0.48-6.564-1.041-12.887-1.601-19.131c7.124,5.283,15.769,8.165,24.654,8.245
		c1.041,0,2.161,0,3.202-0.16c10.887-0.72,20.972-5.844,28.096-14.088c6.324-7.364,9.446-16.89,8.565-26.575
		c-0.48-4.403-4.403-7.604-8.805-7.124c-4.323,0.4-7.525,4.242-7.204,8.565c0.48,5.363-1.281,10.726-4.803,14.808
		c-4.403,4.963-10.566,8.005-17.13,8.485c-13.208,1.041-28.725-14.095-29.232-21.637c-0.561-7.684-1.026-18.946-1.105-25.99
		c5.523,4.643,12.407,7.364,19.611,7.604c0.48,0,0.961,0,1.521,0c9.285,0,17.05-2.962,22.493-8.565
		c5.763-6.003,8.485-14.489,7.844-24.494c-0.08-1.841-0.48-4.242-0.961-7.044c-3.122-18.41-2.081-28.496,11.927-32.098
		c4.242-1.201,6.724-5.603,5.523-9.846c-1.201-4.163-5.363-6.564-9.525-5.603c-30.657,8.005-25.775,37.622-23.693,50.269
		c0.32,2.161,0.64,4.002,0.801,5.443c0.24,3.762-0.16,8.965-3.362,12.327s-8.245,3.842-11.927,3.682
		c-20.647-0.017-18.02-19.67-17.851-21.772c1.681-8.405,4.323-15.769,8.485-21.532c2.722-3.682,1.841-8.885-2.001-11.446
		c-1.841-1.201-4.163-1.521-6.244-1.041s-3.602,1.601-4.722,3.122c-18.331,25.295-14.729,66.118-10.566,113.426
		c0.64,7.604,1.361,15.449,2.001,23.453l0.08,1.12c4.482,58.434-2.161,85.73-7.525,107.663l-1.281,5.283
		c-0.961,4.323,1.761,8.565,6.084,9.525c4.242,0.961,8.485-1.601,9.525-5.844l1.281-5.203c4.163-17.13,9.125-37.381,9.446-71.721
		c3.923,2.001,8.325,3.042,12.727,3.042h1.041c8.485-0.32,16.41-4.242,21.853-10.806c2.882-3.362,2.482-8.405-0.88-11.287
		C301.601,271.008,296.558,271.409,293.677,274.771L293.677,274.771z"/>
	<path style="fill:#FFFFFF;" d="M275.747,373.868c-0.32,11.046,5.603,22.493,16.65,32.179c3.202,3.122,8.245,3.042,11.287-0.16
		c3.122-3.202,3.042-8.245-0.16-11.287c-0.16-0.16-0.4-0.4-0.64-0.561c-7.364-6.484-11.367-13.448-11.206-19.691
		c0.16-5.443,3.522-9.206,6.324-11.367c2.801-2.161,13.528-4.963,19.051-0.801c5.523,4.163,5.283,8.165,3.522,17.21
		c-1.281,6.324-2.722,13.528,1.761,19.851c3.122,4.403,8.485,7.124,16.329,8.245c4.403,0.64,8.405-2.401,9.045-6.804
		c0.64-4.403-2.401-8.405-6.804-9.045c-4.323-0.64-5.443-1.601-5.443-1.601c-0.48-1.041,0.4-5.123,0.801-7.525
		c1.681-8.405,4.482-22.573-9.606-33.139c-11.767-8.805-30.338-5.363-38.503,1.041C280.39,356.418,275.987,364.823,275.747,373.868z
		"/>
</g>
<g>
</g>
<g>
</g>
<g>
</g>
<g>
</g>
<g>
</g>
<g>
</g>
<g>
</g>
<g>
</g>
<g>
</g>
<g>
</g>
<g>
</g>
<g>
</g>
<g>
</g>
<g>
</g>
<g>
</g>
</svg>
