<?xml version="1.0" encoding="iso-8859-1"?>
<!-- Generator: Adobe Illustrator 19.0.0, SVG Export Plug-In . SVG Version: 6.00 Build 0)  -->
<svg version="1.1" id="Layer_1" xmlns="http://www.w3.org/2000/svg" xmlns:xlink="http://www.w3.org/1999/xlink" x="0px" y="0px"
	 viewBox="0 0 508 508" style="enable-background:new 0 0 508 508;" xml:space="preserve">
<circle style="fill:#90DFAA;" cx="254" cy="254" r="254"/>
<path style="fill:#2C9984;" d="M45.6,399.2C91.6,464.8,167.6,508,254,508s162.4-43.2,208.4-108.8H45.6z"/>
<g>
	<rect x="103.6" y="124.4" style="fill:#FFFFFF;" width="50.4" height="237.6"/>
	<rect x="180.8" y="178.8" style="fill:#FFFFFF;" width="50.4" height="183.2"/>
	<rect x="258" y="222.8" style="fill:#FFFFFF;" width="50.4" height="139.2"/>
	<rect x="334.8" y="258.4" style="fill:#FFFFFF;" width="50.4" height="103.6"/>
</g>
<path style="fill:#324A5E;" d="M397.2,362H91.6c-4.8,0-8.8,4-8.8,8.8v21.6c0,4.8,4,8.8,8.8,8.8h306c4.8,0,8.8-4,8.8-8.8v-21.6
	C406,366,402,362,397.2,362z"/>
<polygon style="fill:#FF7058;" points="316.4,194.8 307.2,211.2 406,211.6 352.4,132 343.2,148.4 134.8,57.6 "/>
<g>
</g>
<g>
</g>
<g>
</g>
<g>
</g>
<g>
</g>
<g>
</g>
<g>
</g>
<g>
</g>
<g>
</g>
<g>
</g>
<g>
</g>
<g>
</g>
<g>
</g>
<g>
</g>
<g>
</g>
</svg>
