<?xml version="1.0" encoding="iso-8859-1"?>
<!-- Generator: Adobe Illustrator 19.0.0, SVG Export Plug-In . SVG Version: 6.00 Build 0)  -->
<svg version="1.1" id="Layer_1" xmlns="http://www.w3.org/2000/svg" xmlns:xlink="http://www.w3.org/1999/xlink" x="0px" y="0px"
	 viewBox="0 0 492 492" style="enable-background:new 0 0 492 492;" xml:space="preserve">
<g>
	<g id="XMLID_1068_">
		<rect y="1" style="fill:#009FE3;" width="492" height="188.344"/>
	</g>
	<polygon style="fill:#1D71B8;" points="461.25,140.173 461.25,116.5 415.125,116.5 415.125,156.969 399.75,156.969 399.75,140.781 
		369,140.781 369,156.969 361.313,156.969 361.313,140.781 330.563,140.781 330.563,156.969 330.563,165.063 330.563,189.344 
		492,189.344 492,164.454 492,156.969 492,140.173 	"/>
	<g id="XMLID_798_">
		<rect y="186.376" style="fill:#F39200;" width="492" height="304.624"/>
	</g>
	<g id="XMLID_845_">
		<path style="fill:#CBBBA0;" d="M184.5,262.188c0-17.88,13.767-32.375,30.75-32.375S246,244.308,246,262.188"/>
		<path style="fill:#1D1D1B;" d="M253.888,262.188h-15.776c0-13.502-10.256-24.487-22.862-24.487s-22.862,10.985-22.862,24.487
			h-15.776c0-22.201,17.333-40.263,38.638-40.263S253.888,239.986,253.888,262.188z"/>
	</g>
	<g id="XMLID_853_">
		<path style="fill:#CBBBA0;" d="M369,359.313c0-17.88,13.767-32.375,30.75-32.375s30.75,14.495,30.75,32.375"/>
		<path style="fill:#1D1D1B;" d="M438.388,359.313h-15.776c0-13.502-10.256-24.487-22.862-24.487s-22.862,10.985-22.862,24.487
			h-15.776c0-22.201,17.333-40.263,38.638-40.263S438.388,337.111,438.388,359.313z"/>
	</g>
	<g id="XMLID_828_">
		<path style="fill:#CBBBA0;" d="M107.625,448.344c0-17.88,13.767-32.375,30.75-32.375s30.75,14.495,30.75,32.375"/>
		<path style="fill:#1D1D1B;" d="M177.013,448.344h-15.776c0-13.502-10.256-24.487-22.862-24.487s-22.862,10.985-22.862,24.487
			H99.737c0-22.201,17.333-40.263,38.638-40.263S177.013,426.143,177.013,448.344z"/>
	</g>
	<polygon style="fill:#1D1D1B;" points="215.451,181.456 215.451,132.481 238.513,132.481 238.513,100.313 222.737,100.313 
		222.737,116.706 215.451,116.706 215.451,76.031 199.674,76.031 199.674,140.987 192.388,140.987 192.388,124.594 176.612,124.594 
		176.612,156.763 199.674,156.763 199.674,181.456 100.138,181.456 100.138,156.763 123.201,156.763 123.201,124.594 
		107.424,124.594 107.424,140.987 100.138,140.987 100.138,76.031 84.362,76.031 84.362,116.706 77.076,116.706 77.076,100.313 
		61.299,100.313 61.299,132.481 84.362,132.481 84.362,181.456 0,181.456 0,197.231 492,197.231 492,181.456 	"/>
	<g id="XMLID_1195_">
		<rect x="76.875" y="221.925" style="fill:#1D1D1B;" width="46.125" height="15.775"/>
	</g>
	<g id="XMLID_1197_">
		<rect x="46.125" y="302.862" style="fill:#1D1D1B;" width="23.062" height="15.775"/>
	</g>
	<g id="XMLID_1198_">
		<rect x="269.063" y="416.175" style="fill:#1D1D1B;" width="184.5" height="15.775"/>
	</g>
	<g id="XMLID_800_">
		<rect x="222.937" y="456.644" style="fill:#1D1D1B;" width="30.75" height="15.775"/>
	</g>
	<g id="XMLID_810_">
		<rect x="276.75" y="278.581" style="fill:#1D1D1B;" width="23.062" height="15.775"/>
	</g>
	<g id="XMLID_811_">
		<rect x="407.438" y="238.112" style="fill:#1D1D1B;" width="53.813" height="15.775"/>
	</g>
	<g>
		<path style="fill:#1D1D1B;" d="M215.25,221.925c-18.715,0-34.36,13.938-37.889,32.375H123v15.775h153.75V254.3h-23.611
			C249.61,235.863,233.965,221.925,215.25,221.925z M215.25,237.7c10.03,0,18.565,6.957,21.638,16.6h-43.276
			C196.685,244.657,205.22,237.7,215.25,237.7z"/>
		<path style="fill:#1D1D1B;" d="M437.639,351.425c-3.529-18.437-19.174-32.375-37.889-32.375s-34.36,13.938-37.889,32.375h-8.236
			V367.2h92.25v-15.775L437.639,351.425L437.639,351.425z M399.75,334.825c10.03,0,18.565,6.957,21.638,16.6h-43.276
			C381.185,341.782,389.72,334.825,399.75,334.825z"/>
		<path style="fill:#1D1D1B;" d="M138.375,408.081c-18.715,0-34.36,13.938-37.889,32.375H92.25v15.775h92.25v-15.775h-8.236
			C172.735,422.019,157.09,408.081,138.375,408.081z M138.375,423.856c10.03,0,18.565,6.957,21.638,16.6h-43.276
			C119.81,430.813,128.345,423.856,138.375,423.856z"/>
	</g>
	<g id="XMLID_813_">
		<rect y="196.786" style="fill:#B66E00;" width="492" height="17.628"/>
	</g>
</g>
<g>
</g>
<g>
</g>
<g>
</g>
<g>
</g>
<g>
</g>
<g>
</g>
<g>
</g>
<g>
</g>
<g>
</g>
<g>
</g>
<g>
</g>
<g>
</g>
<g>
</g>
<g>
</g>
<g>
</g>
</svg>
