<?xml version="1.0" encoding="iso-8859-1"?>
<!-- Generator: Adobe Illustrator 19.0.0, SVG Export Plug-In . SVG Version: 6.00 Build 0)  -->
<svg version="1.1" id="Layer_1" xmlns="http://www.w3.org/2000/svg" xmlns:xlink="http://www.w3.org/1999/xlink" x="0px" y="0px"
	 viewBox="0 0 511.934 511.934" style="enable-background:new 0 0 511.934 511.934;" xml:space="preserve">
<g transform="translate(1 1)">
	<path style="fill:#7383BF;" d="M220.831,212.3h-85.333v-14.217c0-6.289,5.094-11.383,11.383-11.383h62.566
		c6.289,0,11.383,5.094,11.383,11.383V212.3H220.831z"/>
	<path style="fill:#434C6D;" d="M229.331,220.8H126.997v-22.717c0-10.964,8.92-19.883,19.884-19.883h62.566
		c10.964,0,19.883,8.919,19.883,19.883V220.8H229.331z M143.997,203.8h68.333v-5.717c0-1.59-1.293-2.883-2.883-2.883h-62.566
		c-1.59,0-2.884,1.293-2.884,2.883L143.997,203.8L143.997,203.8z"/>
	<polygon style="fill:#7383BF;" points="161.097,186.7 195.231,186.7 195.231,161.1 161.097,161.1 	"/>
	<path style="fill:#434C6D;" d="M203.73,195.2h-51.133v-42.6h51.133V195.2z M169.597,178.2h17.133v-8.6h-17.133V178.2z"/>
	<path style="fill:#7383BF;" d="M289.097,161.1H67.231c-4.71,0-8.533-3.823-8.533-8.533V16.033c0-4.71,3.823-8.533,8.533-8.533
		h221.867c4.71,0,8.533,3.823,8.533,8.533v136.533C297.631,157.277,293.808,161.1,289.097,161.1"/>
	<path style="fill:#434C6D;" d="M289.098,169.6H67.23c-9.392,0-17.033-7.641-17.033-17.033V16.034C50.197,6.641,57.838-1,67.23-1
		h221.867c9.393,0,17.033,7.641,17.033,17.034v136.533C306.131,161.959,298.49,169.6,289.098,169.6z M67.23,16l-0.033,136.567
		l221.9,0.033c0.01,0,0.014,0,0.014,0l0.02-136.566L67.23,16z"/>
	<path style="fill:#7383BF;" d="M58.697,126.967v25.6c0,4.71,3.823,8.533,8.533,8.533h221.867c4.71,0,8.533-3.823,8.533-8.533v-25.6
		H58.697z"/>
	<path style="fill:#434C6D;" d="M289.098,169.6H67.23c-9.392,0-17.033-7.641-17.033-17.033v-34.1h255.934v34.1
		C306.131,161.959,298.49,169.6,289.098,169.6z M67.197,135.467v17.1l221.9,0.033l0.022-17.133L67.197,135.467L67.197,135.467z"/>
	<polygon style="fill:#88C057;" points="348.831,212.3 382.964,212.3 382.964,101.367 348.831,101.367 	"/>
	<polygon style="fill:#23A24D;" points="382.964,212.3 417.097,212.3 417.097,84.3 382.964,84.3 	"/>
	<polygon style="fill:#EA6148;" points="417.097,212.3 451.231,212.3 451.231,118.433 417.097,118.433 	"/>
	<polygon style="fill:#845C46;" points="331.764,331.767 485.364,331.767 485.364,246.433 331.764,246.433 	"/>
	<path style="fill:#553323;" d="M493.864,340.267h-170.6V237.934h170.601L493.864,340.267L493.864,340.267z M340.264,323.267
		h136.601v-68.333H340.264V323.267z"/>
	<polygon style="fill:#845C46;" points="331.764,417.1 485.364,417.1 485.364,331.767 331.764,331.767 	"/>
	<path style="fill:#553323;" d="M493.864,425.601h-170.6V323.267h170.601L493.864,425.601L493.864,425.601z M340.264,408.601
		h136.601v-68.334H340.264V408.601z"/>
	<polygon style="fill:#845C46;" points="331.764,502.434 485.364,502.434 485.364,417.1 331.764,417.1 	"/>
	<path style="fill:#553323;" d="M493.864,510.934h-170.6V408.601h170.601L493.864,510.934L493.864,510.934z M340.264,493.934
		h136.601v-68.333H340.264V493.934z"/>
	<g>
		<path style="fill:#D7B740;" d="M417.097,297.633H400.03c-4.71,0-8.533-3.823-8.533-8.533s3.823-8.533,8.533-8.533h17.067
			c4.719,0,8.533,3.823,8.533,8.533C425.631,293.811,421.816,297.633,417.097,297.633"/>
		<path style="fill:#D7B740;" d="M417.097,382.967H400.03c-4.71,0-8.533-3.823-8.533-8.533s3.823-8.533,8.533-8.533h17.067
			c4.719,0,8.533,3.823,8.533,8.533C425.631,379.144,421.816,382.967,417.097,382.967"/>
		<path style="fill:#D7B740;" d="M417.097,468.3H400.03c-4.71,0-8.533-3.823-8.533-8.533s3.823-8.533,8.533-8.533h17.067
			c4.719,0,8.533,3.823,8.533,8.533S421.816,468.3,417.097,468.3"/>
	</g>
	<polygon style="fill:#845C46;" points="301.712,212.3 290.585,212.3 7.5,212.3 7.5,246.433 286.13,246.433 306.166,246.433 
		502.433,246.433 502.433,212.3 	"/>
	<path style="fill:#553323;" d="M510.934,254.934H-1V203.8h511.934V254.934z M16,237.934h477.934V220.8H16V237.934z"/>
	<polygon style="fill:#845C46;" points="24.564,502.434 58.697,502.434 58.697,246.433 24.564,246.433 	"/>
	<path style="fill:#553323;" d="M67.197,510.934H16.064v-273h51.133V510.934z M33.064,493.934h17.133v-239H33.064V493.934z"/>
	<g>
		<path style="fill:#434C6D;" d="M84.297,58.7c-2.185,0-4.369-0.836-6.033-2.5c-3.337-3.337-3.337-8.73,0-12.066l17.067-17.067
			c3.337-3.337,8.73-3.337,12.066,0c3.337,3.337,3.337,8.73,0,12.066L90.33,56.2C88.666,57.864,86.482,58.7,84.297,58.7"/>
		<path style="fill:#434C6D;" d="M92.831,92.717c-2.193,0-4.386-0.845-6.059-2.517c-3.319-3.345-3.302-8.747,0.043-12.066
			l42.65-42.53c3.337-3.337,8.73-3.337,12.066,0c3.337,3.328,3.337,8.73,0,12.066L98.847,90.233
			C97.183,91.889,95.007,92.717,92.831,92.717"/>
	</g>
</g>
<g>
</g>
<g>
</g>
<g>
</g>
<g>
</g>
<g>
</g>
<g>
</g>
<g>
</g>
<g>
</g>
<g>
</g>
<g>
</g>
<g>
</g>
<g>
</g>
<g>
</g>
<g>
</g>
<g>
</g>
</svg>
