<?xml version="1.0" encoding="iso-8859-1"?>
<!-- Generator: Adobe Illustrator 19.0.0, SVG Export Plug-In . SVG Version: 6.00 Build 0)  -->
<svg version="1.1" id="Layer_1" xmlns="http://www.w3.org/2000/svg" xmlns:xlink="http://www.w3.org/1999/xlink" x="0px" y="0px"
	 viewBox="0 0 511.971 511.971" style="enable-background:new 0 0 511.971 511.971;" xml:space="preserve">
<polygon style="fill:#EAC6BB;" points="397.475,97.488 361.977,49.491 295.481,18.493 228.985,13.493 181.379,31.992 139.491,67.49 
	100.493,155.985 89.353,206.317 108.665,421.039 122.992,435.303 189.316,495.964 220.658,501.963 262.983,483.964 301.309,436.966 
	320.979,386.47 385.475,279.476 410.974,162.484 "/>
<polygon style="fill:#D69F92;" points="280.982,196.482 255.983,183.983 233.048,183.983 189.769,193.279 161.209,298.437 
	176.208,351.472 188.488,390.97 208.487,399.469 219.986,383.97 241.985,317.474 280.482,262.978 293.481,237.479 "/>
<path d="M417.895,110.714c-10.733-39.911-36.998-69.854-78.088-89.01c-86.76-40.436-144.835-16.866-178.27,10.038
	c-26.937,21.671-48.778,54.63-61.481,92.807c-11.187,33.615-14.39,69.145-8.593,95.042c1.203,5.421,6.406,9.069,11.983,8.233
	c5.813-0.875,9.828-6.313,8.953-12.14c-0.031-0.258-0.094-0.5-0.141-0.742c-9.016-40.24,8.124-122.72,62.652-166.584
	c41.185-33.131,95.088-35.662,155.881-7.327c35.107,16.366,57.48,41.661,66.496,75.19c14.53,54.083-7.297,121.258-28.186,168.083
	c-23.046,51.7-50.107,90.674-50.373,91.064l-0.813,1.164l-0.484,1.344c-16.389,45.725-37.138,78.191-61.667,96.502
	c-19.327,14.438-40.717,19.366-61.855,14.266c-18.405-4.445-36.061-16.531-48.419-33.154c-12.078-16.227-17.78-34.857-15.655-51.131
	c0.125-0.96,0.109-1.952-0.031-2.96c-0.875-5.827-6.313-9.843-12.141-8.976c-4.812,0.727-8.374,4.577-8.983,9.187
	c-5.938,45.653,31.545,96.018,80.229,107.767c7.171,1.734,14.343,2.594,21.452,2.594c20.201,0,39.997-6.922,58.168-20.498
	c27.701-20.68,50.746-56.028,68.512-105.08c4.858-7.125,29.498-44.061,51.387-93.033c14.109-31.584,24.076-61.582,29.639-89.175
	C425.161,169.031,425.098,137.58,417.895,110.714z"/>
<path d="M364.321,128.291c-0.047-0.109-0.125-0.273-0.188-0.375c-16.562-33.311-39.904-54.535-69.418-63.09
	c-50.996-14.788-102.024,14.03-107.837,17.468c-0.172,0.102-0.313,0.18-0.375,0.227l0,0c-3.063,1.875-5.125,5.25-5.125,9.109
	c0,5.89,4.781,10.671,10.672,10.671c2.031,0,3.937-0.578,5.546-1.57c0.469-0.281,47.06-28.217,91.182-15.421
	c23.64,6.851,42.623,24.49,56.435,52.427c1.75,3.522,5.358,5.952,9.562,5.952c5.891,0,10.656-4.78,10.656-10.671
	C365.43,131.314,365.04,129.713,364.321,128.291z"/>
<path d="M295.981,199.029c-9.688-16.351-22.779-26.288-38.873-29.521c-29.716-5.977-58.934,13.968-62.917,16.827
	c-0.141,0.102-0.25,0.18-0.297,0.219l0,0c-2.609,1.944-4.313,5.054-4.313,8.562c0,5.898,4.766,10.679,10.655,10.679
	c2.391,0,4.578-0.797,6.359-2.116c0.234-0.18,24.529-17.64,46.294-13.266c10.077,2.031,18.171,8.406,24.748,19.499
	c14.062,23.702,3.547,39.044-19.608,68.776c-7.952,10.211-16.982,21.788-25.295,35.084c-15.78,25.249-18.546,47.537-20.374,62.293
	c-0.655,5.297-1.546,12.508-2.812,14.234c-0.25,0.086-0.953,0.258-2.453,0.25c-3.813-0.039-6.953-1.531-9.875-4.68
	c-13.952-15.101-16.468-60.754-14.749-85.979c0.016-0.242,0.031-0.484,0.031-0.727c0-5.898-4.765-10.672-10.655-10.672
	c-5.656,0-10.265,4.391-10.64,9.945c-0.047,0.742-1.234,18.467,0.406,39.466c2.313,29.607,9.015,50.614,19.936,62.434
	c6.891,7.444,15.64,11.437,25.327,11.538c0.125,0,0.25,0,0.375,0c12.483,0,18.483-6.492,21.342-11.96
	c3.016-5.804,3.906-12.952,4.938-21.226c1.688-13.663,4.016-32.365,17.296-53.613c7.733-12.359,16.015-22.999,24.03-33.279
	c11.701-15.016,21.795-27.99,26.998-42.342C307.996,232.527,306.075,216.036,295.981,199.029z"/>
<g>
</g>
<g>
</g>
<g>
</g>
<g>
</g>
<g>
</g>
<g>
</g>
<g>
</g>
<g>
</g>
<g>
</g>
<g>
</g>
<g>
</g>
<g>
</g>
<g>
</g>
<g>
</g>
<g>
</g>
</svg>
