<?xml version="1.0" encoding="iso-8859-1"?>
<!-- Generator: Adobe Illustrator 19.0.0, SVG Export Plug-In . SVG Version: 6.00 Build 0)  -->
<svg version="1.1" id="Layer_1" xmlns="http://www.w3.org/2000/svg" xmlns:xlink="http://www.w3.org/1999/xlink" x="0px" y="0px"
	 viewBox="0 0 512 512" style="enable-background:new 0 0 512 512;" xml:space="preserve">
<circle style="fill:#71E2EF;" cx="256" cy="256" r="256"/>
<path style="fill:#38C6D9;" d="M323.658,502.944c98.056-26.805,172.635-110.433,186.14-213.306L408.676,188.516l-25.734,36.424
	l-16.201-16.201l-5.653-2.548l-4.024,0.677L307.459,228.8l-41.227-42.363l-0.907,58.535l-1.998,2.408l-128.574,66.658
	L323.658,502.944z"/>
<path style="fill:#D0D1D3;" d="M304.895,251.895c0,0-7.914-64.929-107.948-112.664c0,0-27.579,104.9,7.796,144.693L304.895,251.895z
	"/>
<path style="fill:#A6A8AA;" d="M196.948,139.231c0,0-27.579,104.9,7.796,144.693l42.879-13.712l-50.14-130.72
	C197.301,139.405,197.129,139.317,196.948,139.231z"/>
<path style="fill:#6CAF5F;" d="M358.41,254.223c-0.24,0-0.483-0.05-0.715-0.157c-0.865-0.395-1.246-1.417-0.85-2.284
	c12.786-27.982,29.403-30.696,30.103-30.796c0.943-0.148,1.817,0.515,1.953,1.458c0.136,0.94-0.512,1.812-1.45,1.953
	c-0.186,0.029-15.551,2.734-27.472,28.82C359.689,253.849,359.065,254.223,358.41,254.223z"/>
<path style="fill:#2E5E24;" d="M387.062,223.866c0,0,19.113-2.174,21.614-35.35C408.676,188.516,381.893,202.431,387.062,223.866z"
	/>
<g>
	<path style="fill:#477F3C;" d="M386.367,224.18c0,0,11.483-15.432-11.016-39.946C375.351,184.236,367.192,213.295,386.367,224.18z"
		/>
	<path style="fill:#477F3C;" d="M426.346,213.185c0,0-7.366,17.77-39.945,11.016C386.401,224.201,407.171,202.3,426.346,213.185z"/>
</g>
<path style="fill:#FFFFFF;" d="M343.547,197.641c-17.461-0.888-31.172,11.974-59.185,28.513
	c-5.577-7.232-52.145-62.24-175.213-57.815c0,0,16.093,69.673,49.023,114.01c-16.41,3.456-32.899,4.856-49.023,3.189
	c0,0,29.891,57.416,117.2,58.599c87.307,1.184,110.983-104.177,150.05-117.2C376.398,226.94,370.052,198.989,343.547,197.641z"/>
<path style="fill:#D0D1D3;" d="M158.17,282.35c-16.41,3.456-32.899,4.856-49.023,3.189c0,0,29.891,57.415,117.2,58.599
	c18.099,0.245,33.458-4.098,46.792-11.238L109.325,169.086C111.154,176.668,127.229,240.692,158.17,282.35z"/>
<circle style="fill:#808183;" cx="346.212" cy="212.282" r="3.551"/>
<g>
</g>
<g>
</g>
<g>
</g>
<g>
</g>
<g>
</g>
<g>
</g>
<g>
</g>
<g>
</g>
<g>
</g>
<g>
</g>
<g>
</g>
<g>
</g>
<g>
</g>
<g>
</g>
<g>
</g>
</svg>
