<?xml version="1.0" encoding="iso-8859-1"?>
<!-- Generator: Adobe Illustrator 19.0.0, SVG Export Plug-In . SVG Version: 6.00 Build 0)  -->
<svg version="1.1" id="Layer_1" xmlns="http://www.w3.org/2000/svg" xmlns:xlink="http://www.w3.org/1999/xlink" x="0px" y="0px"
	 viewBox="0 0 504.8 504.8" style="enable-background:new 0 0 504.8 504.8;" xml:space="preserve">
<g>
	<path style="fill:#600830;" d="M459.2,361.662c0,0.8,0.8,2.4,2.4,2.4l0,0c0.8,0,2.4-0.8,2.4-2.4v-106.4c0-1.6-0.8-2.4-2.4-2.4l0,0
		c-1.6,0-2.4,0.8-2.4,2.4V361.662z"/>
	<path style="fill:#600830;" d="M435.2,363.262c0,1.6,0.8,2.4,2.4,2.4l0,0c0.8,0,2.4-0.8,2.4-2.4v-113.6c0-1.6-0.8-2.4-2.4-2.4l0,0
		c-1.6,0-2.4,0.8-2.4,2.4V363.262z"/>
	<path style="fill:#600830;" d="M410.4,363.262c0,1.6,0.8,2.4,2.4,2.4l0,0c1.6,0,2.4-0.8,2.4-2.4v-120c0-1.6-0.8-2.4-2.4-2.4l0,0
		c-0.8,0-2.4,0.8-2.4,2.4V363.262z"/>
	<path style="fill:#600830;" d="M385.6,363.262c0,1.6,0.8,2.4,2.4,2.4l0,0c1.6,0,2.4-0.8,2.4-2.4v-141.6c0-1.6-0.8-2.4-2.4-2.4l0,0
		c-0.8,0-2.4,0.8-2.4,2.4V363.262z"/>
	<path style="fill:#600830;" d="M360.8,363.262c0,1.6,0.8,2.4,2.4,2.4l0,0c0.8,0,2.4-0.8,2.4-2.4v-183.2c0-1.6-0.8-2.4-2.4-2.4l0,0
		c-1.6,0-2.4,0.8-2.4,2.4V363.262z"/>
	<path style="fill:#600830;" d="M485.6,363.262c0,1.6-0.8,2.4-2.4,2.4l0,0c-1.6,0-2.4-0.8-2.4-2.4v-113.6c0-1.6,0.8-2.4,2.4-2.4l0,0
		c0.8,0,2.4,0.8,2.4,2.4V363.262z"/>
	<path style="fill:#600830;" d="M216,256.862c-67.2,0-122.4-76.8-122.4-170.4c0-1.6,1.6-3.2,3.2-3.2s3.2,1.6,3.2,3.2
		c0,90.4,52,163.2,115.2,163.2c64,0,115.2-73.6,115.2-163.2c0-1.6,1.6-3.2,3.2-3.2s3.2,1.6,3.2,3.2
		C338.4,180.862,283.2,256.862,216,256.862z"/>
	<path style="fill:#600830;" d="M213.6,361.662c0,0.8,0.8,2.4,2.4,2.4l0,0c0.8,0,2.4-0.8,2.4-2.4v-106.4c0-1.6-0.8-2.4-2.4-2.4l0,0
		c-1.6,0-2.4,0.8-2.4,2.4V361.662z"/>
	<path style="fill:#600830;" d="M190.4,363.262c0,1.6,0.8,2.4,2.4,2.4l0,0c1.6,0,2.4-0.8,2.4-2.4v-113.6c0-1.6-0.8-2.4-2.4-2.4l0,0
		c-0.8,0-2.4,0.8-2.4,2.4V363.262z"/>
	<path style="fill:#600830;" d="M164.8,363.262c0,1.6,0.8,2.4,2.4,2.4l0,0c1.6,0,2.4-0.8,2.4-2.4v-120c0-1.6-0.8-2.4-2.4-2.4l0,0
		c-0.8,0-2.4,0.8-2.4,2.4V363.262z"/>
	<path style="fill:#600830;" d="M140,363.262c0,1.6,0.8,2.4,2.4,2.4l0,0c0.8,0,2.4-0.8,2.4-2.4v-141.6c0-1.6-0.8-2.4-2.4-2.4l0,0
		c-1.6,0-2.4,0.8-2.4,2.4V363.262z"/>
	<path style="fill:#600830;" d="M115.2,363.262c0,1.6,0.8,2.4,2.4,2.4l0,0c0.8,0,2.4-0.8,2.4-2.4v-183.2c0-1.6-0.8-2.4-2.4-2.4l0,0
		c-1.6,0-2.4,0.8-2.4,2.4V363.262z"/>
	<path style="fill:#600830;" d="M240,363.262c0,1.6-0.8,2.4-2.4,2.4l0,0c-0.8,0-2.4-0.8-2.4-2.4v-113.6c0-1.6,0.8-2.4,2.4-2.4l0,0
		c1.6,0,2.4,0.8,2.4,2.4V363.262z"/>
	<path style="fill:#600830;" d="M265.6,363.262c0,1.6-0.8,2.4-2.4,2.4l0,0c-1.6,0-2.4-0.8-2.4-2.4v-120c0-1.6,0.8-2.4,2.4-2.4l0,0
		c0.8,0,2.4,0.8,2.4,2.4V363.262z"/>
	<path style="fill:#600830;" d="M290.4,363.262c0,1.6-0.8,2.4-2.4,2.4l0,0c-0.8,0-2.4-0.8-2.4-2.4v-141.6c0-1.6,0.8-2.4,2.4-2.4l0,0
		c0.8,0,2.4,0.8,2.4,2.4V363.262z"/>
	<path style="fill:#600830;" d="M315.2,363.262c0,1.6-0.8,2.4-2.4,2.4l0,0c-0.8,0-2.4-0.8-2.4-2.4v-183.2c0-1.6,0.8-2.4,2.4-2.4l0,0
		c1.6,0,2.4,0.8,2.4,2.4V363.262z"/>
</g>
<path style="fill:#E20A48;" d="M346.4,413.662c0,4-3.2,7.2-7.2,7.2h-2.4c-4,0-7.2-3.2-7.2-7.2v-367.2c0-4,3.2-7.2,7.2-7.2h2.4
	c4,0,7.2,3.2,7.2,7.2V413.662z"/>
<path style="fill:#AA0B48;" d="M346.4,46.462v367.2c0,4-3.2,7.2-7.2,7.2h-2.4c-4,0-7.2-3.2-7.2-7.2"/>
<path style="fill:#EF114B;" d="M349.6,42.462c0,4-3.2,6.4-6.4,6.4h-10.4c-4,0-6.4-3.2-6.4-6.4l0,0c0-4,3.2-6.4,6.4-6.4h10.4
	C346.4,35.262,349.6,38.462,349.6,42.462L349.6,42.462z"/>
<path style="fill:#AA0B48;" d="M348.8,451.262v-32.8c0-4-3.2-7.2-7.2-7.2h-7.2c-4,0-7.2,3.2-7.2,7.2v32.8H348.8z"/>
<path style="fill:#E20A48;" d="M100.8,413.662c0,4-3.2,7.2-7.2,7.2h-2.4c-4,0-7.2-3.2-7.2-7.2v-367.2c0-4,3.2-7.2,7.2-7.2h2.4
	c4,0,7.2,3.2,7.2,7.2V413.662z"/>
<path style="fill:#AA0B48;" d="M100.8,46.462v367.2c0,4-3.2,7.2-7.2,7.2h-2.4c-4,0-7.2-3.2-7.2-7.2"/>
<path style="fill:#EF114B;" d="M104.8,42.462c0,4-3.2,6.4-6.4,6.4H88c-4,0-6.4-3.2-6.4-6.4l0,0c0-4,3.2-6.4,6.4-6.4h10.4
	C101.6,35.262,104.8,38.462,104.8,42.462L104.8,42.462z"/>
<path style="fill:#AA0B48;" d="M103.2,451.262v-32.8c0-4-3.2-7.2-7.2-7.2h-7.2c-4,0-7.2,3.2-7.2,7.2v32.8H103.2z"/>
<g>
	<path style="fill:#600830;" d="M408,370.462c0,4-3.2,7.2-7.2,7.2H7.2c-4,0-7.2-3.2-7.2-7.2v-10.4c0-4,3.2-7.2,7.2-7.2h394.4
		c4,0,7.2,3.2,7.2,7.2v10.4H408z"/>
	<path style="fill:#600830;" d="M504,370.462c0,4-3.2,7.2-7.2,7.2H103.2c-4,0-7.2-3.2-7.2-7.2v-10.4c0-4,3.2-7.2,7.2-7.2h394.4
		c4,0,7.2,3.2,7.2,7.2v10.4H504z"/>
</g>
<g>
	<path style="fill:#AA0B48;" d="M176.8,77.662c0,3.2-2.4,5.6-5.6,5.6h-70.4c-3.2,0-5.6-2.4-5.6-5.6l0,0c0-3.2,2.4-5.6,5.6-5.6h70.4
		C174.4,72.062,176.8,74.462,176.8,77.662L176.8,77.662z"/>
	<path style="fill:#AA0B48;" d="M176.8,131.262c0,3.2-2.4,5.6-5.6,5.6h-70.4c-3.2,0-5.6-2.4-5.6-5.6l0,0c0-3.2,2.4-5.6,5.6-5.6h70.4
		C174.4,125.662,176.8,128.062,176.8,131.262L176.8,131.262z"/>
	<path style="fill:#AA0B48;" d="M176.8,184.062c0,3.2-2.4,5.6-5.6,5.6h-70.4c-3.2,0-5.6-2.4-5.6-5.6l0,0c0-3.2,2.4-5.6,5.6-5.6h70.4
		C174.4,178.462,176.8,180.862,176.8,184.062L176.8,184.062z"/>
	<path style="fill:#AA0B48;" d="M422.4,77.662c0,3.2-2.4,5.6-5.6,5.6h-70.4c-3.2,0-5.6-2.4-5.6-5.6l0,0c0-3.2,2.4-5.6,5.6-5.6h70.4
		C419.2,72.062,422.4,74.462,422.4,77.662L422.4,77.662z"/>
	<path style="fill:#AA0B48;" d="M422.4,131.262c0,3.2-2.4,5.6-5.6,5.6h-70.4c-3.2,0-5.6-2.4-5.6-5.6l0,0c0-3.2,2.4-5.6,5.6-5.6h70.4
		C419.2,125.662,422.4,128.062,422.4,131.262L422.4,131.262z"/>
</g>
<g>
	<path style="fill:#FC8697;" d="M496,363.262c0,1.6,0.8,2.4,2.4,2.4l0,0c1.6,0,2.4-0.8,2.4-2.4v-120c0-1.6-0.8-2.4-2.4-2.4l0,0
		c-0.8,0-2.4,0.8-2.4,2.4V363.262z"/>
	<path style="fill:#FC8697;" d="M471.2,363.262c0,1.6,0.8,2.4,2.4,2.4l0,0c0.8,0,2.4-0.8,2.4-2.4v-141.6c0-1.6-0.8-2.4-2.4-2.4l0,0
		c-1.6,0-2.4,0.8-2.4,2.4V363.262z"/>
	<path style="fill:#FC8697;" d="M446.4,363.262c0,1.6,0.8,2.4,2.4,2.4l0,0c1.6,0,2.4-0.8,2.4-2.4v-183.2c0-1.6-0.8-2.4-2.4-2.4l0,0
		c-1.6,0-2.4,0.8-2.4,2.4V363.262z"/>
</g>
<path style="fill:#AA0B48;" d="M422.4,184.062c0,3.2-2.4,5.6-5.6,5.6h-70.4c-3.2,0-5.6-2.4-5.6-5.6l0,0c0-3.2,2.4-5.6,5.6-5.6h70.4
	C419.2,178.462,422.4,180.862,422.4,184.062L422.4,184.062z"/>
<path style="fill:#E20A48;" d="M432,413.662c0,4-3.2,7.2-7.2,7.2h-2.4c-4,0-7.2-3.2-7.2-7.2v-367.2c0-4,3.2-7.2,7.2-7.2h2.4
	c4,0,7.2,3.2,7.2,7.2V413.662z"/>
<path style="fill:#FF103E;" d="M432,46.462v367.2c0,4-3.2,7.2-7.2,7.2h-2.4c-4,0-7.2-3.2-7.2-7.2"/>
<path style="fill:#EF114B;" d="M436,42.462c0,4-3.2,6.4-6.4,6.4h-10.4c-4,0-6.4-3.2-6.4-6.4l0,0c0-4,3.2-6.4,6.4-6.4h10.4
	C432.8,35.262,436,38.462,436,42.462L436,42.462z"/>
<path style="fill:#FF103E;" d="M434.4,451.262v-32.8c0-4-3.2-7.2-7.2-7.2H420c-4,0-7.2,3.2-7.2,7.2v32.8H434.4z"/>
<rect x="13.6" y="448.062" style="fill:#56ABD6;" width="485.6" height="20.8"/>
<rect x="13.6" y="456.862" style="fill:#2D97C1;" width="485.6" height="12"/>
<g>
	<path style="fill:#FC8697;" d="M301.6,256.862c-67.2,0-122.4-76.8-122.4-170.4c0-1.6,1.6-3.2,3.2-3.2c1.6,0,3.2,1.6,3.2,3.2
		c0,90.4,52,163.2,115.2,163.2s115.2-73.6,115.2-163.2c0-1.6,1.6-3.2,3.2-3.2s3.2,1.6,3.2,3.2
		C424,180.862,368.8,256.862,301.6,256.862z"/>
	<path style="fill:#FC8697;" d="M299.2,361.662c0,0.8,0.8,2.4,2.4,2.4l0,0c1.6,0,2.4-0.8,2.4-2.4v-106.4c0-1.6-0.8-2.4-2.4-2.4l0,0
		c-0.8,0-2.4,0.8-2.4,2.4V361.662z"/>
	<path style="fill:#FC8697;" d="M276,363.262c0,1.6,0.8,2.4,2.4,2.4l0,0c1.6,0,2.4-0.8,2.4-2.4v-113.6c0-1.6-0.8-2.4-2.4-2.4l0,0
		c-0.8,0-2.4,0.8-2.4,2.4V363.262z"/>
	<path style="fill:#FC8697;" d="M251.2,363.262c0,1.6,0.8,2.4,2.4,2.4l0,0c0.8,0,2.4-0.8,2.4-2.4v-120c0-1.6-0.8-2.4-2.4-2.4l0,0
		c-0.8,0-2.4,0.8-2.4,2.4L251.2,363.262L251.2,363.262z"/>
	<path style="fill:#FC8697;" d="M225.6,363.262c0,1.6,0.8,2.4,2.4,2.4l0,0c1.6,0,2.4-0.8,2.4-2.4v-141.6c0-1.6-0.8-2.4-2.4-2.4l0,0
		c-1.6,0-2.4,0.8-2.4,2.4V363.262z"/>
	<path style="fill:#FC8697;" d="M200.8,363.262c0,1.6,0.8,2.4,2.4,2.4l0,0c1.6,0,2.4-0.8,2.4-2.4v-183.2c0-1.6-0.8-2.4-2.4-2.4l0,0
		c-0.8,0-2.4,0.8-2.4,2.4V363.262z"/>
	<path style="fill:#FC8697;" d="M326.4,363.262c0,1.6-0.8,2.4-2.4,2.4l0,0c-1.6,0-2.4-0.8-2.4-2.4v-113.6c0-1.6,0.8-2.4,2.4-2.4l0,0
		c0.8,0,2.4,0.8,2.4,2.4V363.262z"/>
	<path style="fill:#FC8697;" d="M351.2,363.262c0,1.6-0.8,2.4-2.4,2.4l0,0c-1.6,0-2.4-0.8-2.4-2.4v-120c0-1.6,0.8-2.4,2.4-2.4l0,0
		c1.6,0,2.4,0.8,2.4,2.4V363.262z"/>
	<path style="fill:#FC8697;" d="M376,363.262c0,1.6-0.8,2.4-2.4,2.4l0,0c-0.8,0-2.4-0.8-2.4-2.4v-141.6c0-1.6,0.8-2.4,2.4-2.4l0,0
		c1.6,0,2.4,0.8,2.4,2.4V363.262z"/>
	<path style="fill:#FC8697;" d="M400.8,363.262c0,1.6-0.8,2.4-2.4,2.4l0,0c-0.8,0-2.4-0.8-2.4-2.4v-183.2c0-1.6,0.8-2.4,2.4-2.4l0,0
		c1.6,0,2.4,0.8,2.4,2.4V363.262z"/>
</g>
<g>
	<path style="fill:#600830;" d="M21.6,363.262c0,1.6-0.8,2.4-2.4,2.4l0,0c-1.6,0-2.4-0.8-2.4-2.4v-120c0-1.6,0.8-2.4,2.4-2.4l0,0
		c0.8,0,2.4,0.8,2.4,2.4V363.262z"/>
	<path style="fill:#600830;" d="M46.4,363.262c0,1.6-0.8,2.4-2.4,2.4l0,0c-0.8,0-2.4-0.8-2.4-2.4v-141.6c0-1.6,0.8-2.4,2.4-2.4l0,0
		c0.8,0,2.4,0.8,2.4,2.4V363.262z"/>
	<path style="fill:#600830;" d="M71.2,363.262c0,1.6-0.8,2.4-2.4,2.4l0,0c-0.8,0-2.4-0.8-2.4-2.4v-183.2c0-1.6,0.8-2.4,2.4-2.4l0,0
		c1.6,0,2.4,0.8,2.4,2.4V363.262z"/>
</g>
<g>
	<path style="fill:#FC8697;" d="M55.2,361.662c0,0.8,0.8,2.4,2.4,2.4l0,0c0.8,0,2.4-1.6,2.4-2.4v-106.4c0-1.6-0.8-2.4-2.4-2.4l0,0
		c-0.8,0-2.4,0.8-2.4,2.4C55.2,255.262,55.2,361.662,55.2,361.662z"/>
	<path style="fill:#FC8697;" d="M32,363.262c0,1.6,0.8,2.4,2.4,2.4l0,0c0.8-0.8,1.6-1.6,1.6-2.4v-113.6c0-1.6-0.8-2.4-2.4-2.4l0,0
		c-0.8,0-2.4,0.8-2.4,2.4v113.6H32z"/>
	<path style="fill:#FC8697;" d="M82.4,363.262c0,1.6-0.8,2.4-2.4,2.4l0,0c-1.6,0-2.4-0.8-2.4-2.4v-113.6c0-1.6,0.8-2.4,2.4-2.4l0,0
		c0.8,0,2.4,0.8,2.4,2.4V363.262z"/>
	<path style="fill:#FC8697;" d="M107.2,363.262c0,1.6-0.8,2.4-2.4,2.4l0,0c-1.6,0-2.4-0.8-2.4-2.4v-120c0-1.6,0.8-2.4,2.4-2.4l0,0
		c1.6,0,2.4,0.8,2.4,2.4V363.262z"/>
	<path style="fill:#FC8697;" d="M132,363.262c0,1.6-0.8,2.4-2.4,2.4l0,0c-0.8,0-2.4-0.8-2.4-2.4v-141.6c0-1.6,0.8-2.4,2.4-2.4l0,0
		c1.6,0,2.4,0.8,2.4,2.4V363.262z"/>
	<path style="fill:#FC8697;" d="M156.8,363.262c0,1.6-0.8,2.4-2.4,2.4l0,0c-0.8,0-2.4-0.8-2.4-2.4v-183.2c0-1.6,0.8-2.4,2.4-2.4l0,0
		c1.6,0,2.4,0.8,2.4,2.4V363.262z"/>
</g>
<path style="fill:#E20A48;" d="M187.2,413.662c0,4-3.2,7.2-7.2,7.2h-2.4c-4,0-7.2-3.2-7.2-7.2v-367.2c0-4,3.2-7.2,7.2-7.2h2.4
	c4,0,7.2,3.2,7.2,7.2V413.662z"/>
<path style="fill:#FF103E;" d="M187.2,46.462v367.2c0,4-3.2,7.2-7.2,7.2h-2.4c-4,0-7.2-3.2-7.2-7.2"/>
<path style="fill:#EF114B;" d="M190.4,42.462c0,4-3.2,6.4-6.4,6.4h-10.4c-4,0-6.4-3.2-6.4-6.4l0,0c0-4,3.2-6.4,6.4-6.4H184
	C187.2,35.262,190.4,38.462,190.4,42.462L190.4,42.462z"/>
<path style="fill:#FF103E;" d="M189.6,451.262v-32.8c0-4-3.2-7.2-7.2-7.2h-7.2c-4,0-7.2,3.2-7.2,7.2v32.8H189.6z"/>
<path style="fill:#600830;" d="M90.4,83.262c-1.6,0-3.2,1.6-3.2,3.2c0,76-36.8,139.2-86.4,157.6v8c53.6-18.4,92.8-85.6,92.8-165.6
	C94.4,84.862,92.8,83.262,90.4,83.262z"/>
<path style="fill:#FC8697;" d="M176.8,83.262c-1.6,0-3.2,1.6-3.2,3.2c0,90.4-52,163.2-115.2,163.2c-20.8,0-40-8-56-20.8v8.8
	c16.8,12,36,19.2,56,19.2c67.2,0,122.4-76.8,122.4-170.4C180,84.862,178.4,83.262,176.8,83.262z"/>
<path style="fill:#600830;" d="M498.4,240.862c-12,5.6-24,8.8-37.6,8.8c-64,0-115.2-73.6-115.2-163.2c0-1.6-1.6-3.2-3.2-3.2
	s-3.2,1.6-3.2,3.2c0,93.6,55.2,170.4,122.4,170.4c12.8,0,25.6-3.2,37.6-8v-8H498.4z"/>
<path style="fill:#FC8697;" d="M498.4,234.462c-39.2-26.4-67.2-82.4-67.2-148c0-1.6-1.6-3.2-3.2-3.2s-3.2,1.6-3.2,3.2
	c0,69.6,30.4,130.4,73.6,156V234.462z"/>
<g>
</g>
<g>
</g>
<g>
</g>
<g>
</g>
<g>
</g>
<g>
</g>
<g>
</g>
<g>
</g>
<g>
</g>
<g>
</g>
<g>
</g>
<g>
</g>
<g>
</g>
<g>
</g>
<g>
</g>
</svg>
