<?xml version="1.0" encoding="iso-8859-1"?>
<!-- Generator: Adobe Illustrator 18.0.0, SVG Export Plug-In . SVG Version: 6.00 Build 0)  -->
<!DOCTYPE svg PUBLIC "-//W3C//DTD SVG 1.1//EN" "http://www.w3.org/Graphics/SVG/1.1/DTD/svg11.dtd">
<svg version="1.1" id="Capa_1" xmlns="http://www.w3.org/2000/svg" xmlns:xlink="http://www.w3.org/1999/xlink" x="0px" y="0px"
	 viewBox="0 0 512 512" style="enable-background:new 0 0 512 512;" xml:space="preserve">
<g>
	<path style="fill:#B1C3D0;" d="M304,480v-80c0-8.836-7.164-16-16-16s-16,7.164-16,16h-32c0-8.836-7.164-16-16-16s-16,7.164-16,16
		v80H304z"/>
	<path style="fill:#8EADBE;" d="M290.688,384.219C280.664,382.588,272,390.283,272,400h-32c0-9.717-8.664-17.412-18.688-15.781
		c-7.867,1.28-13.312,8.668-13.312,16.639V424h40c8.837,0,16,7.163,16,16v40h40v-56v-23.142
		C304,392.888,298.555,385.499,290.688,384.219z"/>
	<g>
		<path style="fill:#B1C3D0;" d="M256,416c-117.527,0-217.047-83.98-236.629-199.688c-2.383-14.094,1.527-28.422,10.727-39.313
			c9.129-10.805,22.473-17,36.613-17H96c8.836,0,16,7.164,16,16s-7.164,16-16,16H66.711c-4.77,0-9.09,2.008-12.172,5.652
			c-3.105,3.68-4.426,8.535-3.613,13.324C67.891,311.23,154.137,384,256,384s188.109-72.77,205.074-173.023
			c0.813-4.789-0.508-9.645-3.613-13.324c-3.082-3.645-7.402-5.652-12.172-5.652H416c-8.836,0-16-7.164-16-16s7.164-16,16-16h29.289
			c14.141,0,27.484,6.195,36.613,17c9.199,10.891,13.109,25.219,10.727,39.313C473.047,332.02,373.527,416,256,416z"/>
	</g>
	<g>
		<path style="fill:#B1C3D0;" d="M256,416c-117.527,0-217.047-83.98-236.629-199.688c-2.383-14.094,1.527-28.422,10.727-39.313
			c9.129-10.805,22.473-17,36.613-17H96c8.836,0,16,7.164,16,16s-7.164,16-16,16H66.711c-4.77,0-9.09,2.008-12.172,5.652
			c-3.105,3.68-4.426,8.535-3.613,13.324C67.891,311.23,154.137,384,256,384s188.109-72.77,205.074-173.023
			c0.813-4.789-0.508-9.645-3.613-13.324c-3.082-3.645-7.402-5.652-12.172-5.652H416c-8.836,0-16-7.164-16-16s7.164-16,16-16h29.289
			c14.141,0,27.484,6.195,36.613,17c9.199,10.891,13.109,25.219,10.727,39.313C473.047,332.02,373.527,416,256,416z"/>
	</g>
	<g>
		<path style="fill:#B1C3D0;" d="M352,512H160c-8.836,0-16-7.164-16-16s7.164-16,16-16h192c8.836,0,16,7.164,16,16
			S360.836,512,352,512z"/>
	</g>
	<path style="fill:#00ACDD;" d="M400,176c0,79.523-64.47,144-144,144c-79.531,0-144-64.477-144-144S176.469,32,256,32
		C335.53,32,400,96.477,400,176z"/>
	<path style="fill:#A25425;" d="M256,352c-97.047,0-176-78.953-176-176S158.953,0,256,0s176,78.953,176,176S353.047,352,256,352z
		 M256,32c-79.402,0-144,64.598-144,144s64.598,144,144,144s144-64.598,144-144S335.402,32,256,32z"/>
	<g>
		<path style="fill:#50BEE7;" d="M200.57,249.141c-2.047,0-4.094-0.781-5.656-2.344c-3.125-3.125-3.125-8.188,0-11.313
			l120.57-120.57c3.125-3.125,8.188-3.125,11.313,0s3.125,8.188,0,11.313l-120.57,120.57
			C204.664,248.359,202.617,249.141,200.57,249.141z"/>
	</g>
	<g>
		<path style="fill:#50BEE7;" d="M264.57,248.57c-2.047,0-4.094-0.781-5.656-2.344c-3.125-3.125-3.125-8.188,0-11.313l56.57-56.57
			c3.125-3.125,8.188-3.125,11.313,0s3.125,8.188,0,11.313l-56.57,56.57C268.664,247.789,266.617,248.57,264.57,248.57z"/>
	</g>
	<g>
		<path style="fill:#50BEE7;" d="M200,184.57c-2.047,0-4.094-0.781-5.656-2.344c-3.125-3.125-3.125-8.188,0-11.313l56.57-56.57
			c3.125-3.125,8.188-3.125,11.313,0s3.125,8.188,0,11.313l-56.57,56.57C204.094,183.789,202.047,184.57,200,184.57z"/>
	</g>
	<path style="fill:#7F4122;" d="M424,168c-4.418,0-8,3.582-8,8c0,88.365-71.634,160-160,160c-4.418,0-8,3.582-8,8
		c0,4.418,3.582,8,8,8c97.202,0,176-78.798,176-176C432,171.582,428.418,168,424,168z"/>
	<path style="fill:#7F4122;" d="M256,16C167.633,16,96,87.641,96,176c0,4.418,3.582,8,8,8s8-3.582,8-8c0-79.523,64.469-144,144-144
		c4.418,0,8-3.582,8-8C264,19.582,260.418,16,256,16z"/>
	<path style="fill:#8EADBE;" d="M368,496H176c-8.837,0-16,7.163-16,16v0h192C360.837,512,368,504.837,368,496L368,496z"/>
	<path style="fill:#8EADBE;" d="M491.044,224.076c0.005-0.025,0.012-0.05,0.017-0.076h-0.032c-0.091-4.428-3.679-8-8.128-8
		c-4.45,0-8.038,3.572-8.129,8h-0.029C452.761,324.631,363.225,400,256,400c-4.418,0-8,3.582-8,8c0,4.418,3.582,8,8,8
		c114.816,0,210.632-80.684,234.25-188.41c0.492-1.05,0.811-2.193,0.811-3.429C491.062,224.13,491.045,224.105,491.044,224.076z"/>
</g>
<g>
</g>
<g>
</g>
<g>
</g>
<g>
</g>
<g>
</g>
<g>
</g>
<g>
</g>
<g>
</g>
<g>
</g>
<g>
</g>
<g>
</g>
<g>
</g>
<g>
</g>
<g>
</g>
<g>
</g>
</svg>
