<?xml version="1.0" encoding="iso-8859-1"?>
<!-- Generator: Adobe Illustrator 19.0.0, SVG Export Plug-In . SVG Version: 6.00 Build 0)  -->
<svg xmlns="http://www.w3.org/2000/svg" xmlns:xlink="http://www.w3.org/1999/xlink" version="1.1" id="Layer_1" x="0px" y="0px" viewBox="0 0 439.48 439.48" style="enable-background:new 0 0 439.48 439.48;" xml:space="preserve" width="512" height="512">
<g>
	<rect x="102.078" y="231.441" style="fill:#EAB932;" width="241.333" height="121.333"/>
	<path style="fill:#FFD039;" d="M367.245,372.331v-31h-14.08l-3.58-89l-0.36-9h18.02v-31h-0.001h0.001l-146.5-47.93l-146.5,47.93   h0.001h-0.001v31h18.01l-0.36,9l-3.57,89h-14.08v31h-20v25h333v-25H367.245z M151.645,252.331l-3.57,89h-33.91l-3.58-89l-0.36-9   h41.78L151.645,252.331z M211.395,252.331l-3.57,89h-33.91l-3.58-89l-0.36-9h41.78L211.395,252.331z M271.145,252.331l-3.57,89   h-33.91l-3.58-89l-0.36-9h41.78L271.145,252.331z M330.895,252.331l-3.57,89h-33.91l-3.58-89l-0.36-9h41.78L330.895,252.331z"/>
	<polygon style="fill:#EAB932;" points="155.787,199.331 220.745,178.08 285.703,199.331  "/>
	<g>
		<path style="fill:#CCCCCC;" d="M439.48,418.972H0c0-4.43,1.13-8.59,3.12-12.22c1.17-2.14,2.64-4.09,4.35-5.8    c4.61-4.62,10.99-7.47,18.03-7.47h388.48c9.65,0,18.05,5.36,22.38,13.27C438.35,410.382,439.48,414.542,439.48,418.972z"/>
		<path style="fill:#999999;" d="M439.48,418.972H0c0-4.43,1.13-8.59,3.12-12.22h433.24    C438.35,410.382,439.48,414.542,439.48,418.972z"/>
	</g>
	<path style="fill:#EAB932;" d="M339.302,20.508c-27.75,0-50.24,22.5-50.24,50.25s22.49,50.25,50.24,50.25s50.25-22.5,50.25-50.25   S367.052,20.508,339.302,20.508z"/>
	<path style="fill:#FFD039;" d="M289.062,70.758c0,27.75,22.49,50.25,50.24,50.25c6.12,0,11.98-1.09,17.4-3.1   c2.01-5.42,3.1-11.28,3.1-17.4c0-27.75-22.49-50.25-50.25-50.25c-6.11,0-11.97,1.09-17.39,3.09   C290.152,58.778,289.062,64.638,289.062,70.758z"/>
	<polygon style="fill:#EAB932;" points="110.225,243.331 110.585,252.331 91.895,252.331 92.255,243.331  "/>
	<polygon style="fill:#EAB932;" points="169.975,243.331 170.335,252.331 151.645,252.331 152.005,243.331  "/>
	<polygon style="fill:#EAB932;" points="229.725,243.331 230.085,252.331 211.395,252.331 211.755,243.331  "/>
	<polygon style="fill:#EAB932;" points="289.475,243.331 289.835,252.331 271.145,252.331 271.505,243.331  "/>
	<polygon style="fill:#EAB932;" points="349.585,252.331 330.895,252.331 331.255,243.331 349.225,243.331  "/>
	<polygon style="fill:#EAB932;" points="367.245,363.331 367.245,372.331 74.245,372.331 74.245,363.331 88.245,363.331    114.245,363.331 147.995,363.331 173.995,363.331 207.745,363.331 233.745,363.331 267.495,363.331 293.495,363.331    327.245,363.331 353.245,363.331  "/>
	<polygon style="fill:#EAB932;" points="367.245,212.331 367.245,221.331 74.245,221.331 74.245,212.331 88.245,212.331    114.245,212.331 147.995,212.331 173.995,212.331 207.745,212.331 233.745,212.331 267.495,212.331 293.495,212.331    327.245,212.331 353.245,212.331  "/>
</g>















</svg>
