<svg xmlns="http://www.w3.org/2000/svg" xmlns:xlink="http://www.w3.org/1999/xlink" xmlns:fi="http://pattern.flaticon.com/" x="0" y="0" width="600" height="600" viewBox="0 0 210 210"><rect x="0px" y="0px" width="100%" height="100%" opacity="1" fill="#ffffff"/><defs><g transform="matrix(0.3425496816635132 0 0 0.3425496816635132 24.30741417413708 26.307281494140625)" id="L1_0"><path d="M256.001,0c141.383,0,255.998,114.615,255.998,256.001C511.999,397.385,397.384,512,256.001,512  c-141.387,0-256-114.615-256-255.999C0.001,114.615,114.614,0,256.001,0z" fill="#1a91a1"/><path d="M449.88,229.812c4.539,1.524,7.607,11.326,2.432,26.879c-5.174,15.553-13.518,21.522-18.028,20.006  c-2.658-0.891-3.089-1.268-6.581-2.439l0.727-2.182c-3.74-5.497-4.527-14.648-1.453-23.895c3.077-9.246,9.181-16.082,15.461-18.214  l0.713-2.147C446.509,228.949,447.226,228.921,449.88,229.812z" fill="#ecf0f1"/><path d="M442.063,227.187c5.707,1.917,6.846,13.966,2.538,26.913c-4.307,12.949-12.427,21.889-18.133,19.973  c-5.709-1.918-6.846-13.967-2.54-26.917C428.236,234.21,436.355,225.269,442.063,227.187z" fill="#15bdb1"/><path d="M386.052,208.05l51.614,21.543c8.942,5.271-0.29,36.663-12.651,38.471l-54.485-13.343L386.052,208.05  L386.052,208.05z" fill="#20d0c2"/><path d="M63.446,48.118l0.103,0.046l-0.105-0.039L63.446,48.118z M65.655,49.086L65.655,49.086  L396.13,198.594c17.246,20.972,3.58,66.925-23.477,70.578L19.132,188.948c17.837,2.923,41.23-22.857,53.507-59.771  C84.921,92.259,81.658,57.526,65.655,49.086z M16.895,188.413L16.895,188.413l-0.107-0.026l0.004-0.007L16.895,188.413z" fill="#666666"/><path d="M63.735,48.216c17.951,6.029,22.061,42.317,9.177,81.052c-12.884,38.733-37.884,65.245-55.835,59.217  c-17.952-6.029-22.061-42.321-9.178-81.052C20.783,68.698,45.784,42.185,63.735,48.216L63.735,48.216z" fill="#807d7d"/><path d="M56.357,63.841c11.719,3.936,13.2,31.237,3.308,60.977c-9.893,29.739-27.414,50.658-39.133,46.722  c-11.717-3.936-13.198-31.237-3.308-60.977C27.116,80.824,44.638,59.905,56.357,63.841z" fill="#ecf0f1"/><path d="M220.644,509.559l51.615-206.158l-17.025-3.312L209.536,507.78  C213.21,508.456,216.916,509.042,220.644,509.559z M373.963,483.244L373.963,483.244c-3.616,1.882-7.284,3.678-11.001,5.389  l-60.244-185.233l17.007-3.312L373.963,483.244z M300.743,508.095L300.743,508.095c-4.129,0.728-8.293,1.36-12.487,1.887  l-8.344-210.296h16.723L300.743,508.095z" fill="#20d0c2"/><path d="M329.632,283.877v11.468c-1.502,14.321-85.344,10.435-82.654-1.779V279.41  c-1.386,6.269,71.699,9.997,82.078,2.15C329.237,281.722,329.571,282.665,329.632,283.877z" fill="#666666"/><path d="M247.868,240.855c33.738,7.657,61.17,13.401,84.953-29.373l14.622,6.811  c-6.51,21.114-24.465,36.526-40.251,39.62v15.557c11.357,1.887,19.585,4.879,21.863,8.091c-10.379,7.847-83.464,4.119-82.079-2.152  c0.794-3.612,9.504-5.498,21.872-6.59V254.96C256.73,253.343,248.489,246.058,247.868,240.855z" fill="#20d0c2"/></g><g transform="matrix(-0.4813637698681188 -0.06971475576059506 -0.06971475576059506 0.4813637698681188 222.33282874128471 20.27186277746611)" id="L1_1"><path d="M213.333,0C95.509,0,0,95.514,0,213.333s95.509,213.333,213.333,213.333   c117.815,0,213.333-95.514,213.333-213.333S331.149,0,213.333,0z M213.333,372.527c-87.778,0-159.194-71.411-159.194-159.194   S125.555,54.14,213.333,54.14s159.194,71.415,159.194,159.194S301.111,372.527,213.333,372.527z" fill="#f05228"/><rect x="17px" y="186px" width="392px" height="54px" transform="matrix(-0.7071 -0.7071 0.7071 -0.7071 213.3327 515.0204)" fill="#f05228"/></g></defs><g fi:class="KUsePattern"><pattern id="pattern_L1_0" width="350" height="350" patternUnits="userSpaceOnUse"><use xlink:href="#L1_0" x="-350" y="-350"/><use xlink:href="#L1_0" x="0" y="-350"/><use xlink:href="#L1_0" x="350" y="-350"/><use xlink:href="#L1_0" x="-350" y="0"/><use xlink:href="#L1_0" x="0" y="0"/><use xlink:href="#L1_0" x="350" y="0"/><use xlink:href="#L1_0" x="-350" y="350"/><use xlink:href="#L1_0" x="0" y="350"/><use xlink:href="#L1_0" x="350" y="350"/></pattern><rect x="0" y="0" width="100%" height="100%" fill="url(#pattern_L1_0)"/></g><g fi:class="KUsePattern"><pattern id="pattern_L1_1" width="350" height="350" patternUnits="userSpaceOnUse"><use xlink:href="#L1_1" x="-350" y="-350"/><use xlink:href="#L1_1" x="0" y="-350"/><use xlink:href="#L1_1" x="350" y="-350"/><use xlink:href="#L1_1" x="-350" y="0"/><use xlink:href="#L1_1" x="0" y="0"/><use xlink:href="#L1_1" x="350" y="0"/><use xlink:href="#L1_1" x="-350" y="350"/><use xlink:href="#L1_1" x="0" y="350"/><use xlink:href="#L1_1" x="350" y="350"/></pattern><rect x="0" y="0" width="100%" height="100%" fill="url(#pattern_L1_1)"/></g></svg>