<?xml version="1.0" encoding="iso-8859-1"?>
<!-- Generator: Adobe Illustrator 19.0.0, SVG Export Plug-In . SVG Version: 6.00 Build 0)  -->
<svg version="1.1" id="Layer_1" xmlns="http://www.w3.org/2000/svg" xmlns:xlink="http://www.w3.org/1999/xlink" x="0px" y="0px"
	 viewBox="0 0 512 512" style="enable-background:new 0 0 512 512;" xml:space="preserve">
<path style="fill:#77E0C1;" d="M261.746,74.499c-30.333,0-54.667,23.94-55.137,54.268c-0.273,17.634,7.738,33.399,20.39,43.677
	c4.77,3.875,7.602,9.643,7.602,15.788v29.116h54.287v-29.118c0-6.085,2.736-11.857,7.471-15.679
	c12.518-10.106,20.529-25.568,20.529-42.91C316.888,99.188,292.2,74.499,261.746,74.499z"/>
<path style="opacity:0.1;enable-background:new    ;" d="M247.147,217.348v-30.016c0-6.146-2.832-11.913-7.602-15.788
	c-12.651-10.278-20.664-26.043-20.39-43.677c0.416-26.801,19.468-48.599,44.825-53.311c-0.742-0.029-1.484-0.056-2.234-0.056
	c-30.333,0-54.667,23.94-55.137,54.268c-0.273,17.634,7.738,33.399,20.39,43.677c4.77,3.875,7.602,9.643,7.602,15.788v29.116
	H247.147z"/>
<path style="fill:#77E0C1;" d="M261.746,72.341c-4.496,0-8.138-3.643-8.138-8.138V8.138c0-4.496,3.643-8.138,8.138-8.138
	s8.138,3.643,8.138,8.138v56.064C269.884,68.698,266.24,72.341,261.746,72.341z"/>
<path style="opacity:0.2;enable-background:new    ;" d="M261.746,72.341c-4.496,0-8.138-3.643-8.138-8.138V8.138
	c0-4.496,3.643-8.138,8.138-8.138s8.138,3.643,8.138,8.138v56.064C269.884,68.698,266.24,72.341,261.746,72.341z"/>
<path style="fill:#77E0C1;" d="M242.151,79.622c-2.323,0-4.629-0.989-6.238-2.907l-36.036-42.948
	c-2.89-3.444-2.44-8.577,1.003-11.465c3.443-2.891,8.577-2.44,11.465,1.003l36.036,42.948c2.89,3.444,2.44,8.577-1.003,11.465
	C245.853,78.998,243.997,79.622,242.151,79.622z"/>
<path style="opacity:0.2;enable-background:new    ;" d="M242.151,79.622c-2.323,0-4.629-0.989-6.238-2.907l-36.036-42.948
	c-2.89-3.444-2.44-8.577,1.003-11.465c3.443-2.891,8.577-2.44,11.465,1.003l36.036,42.948c2.89,3.444,2.44,8.577-1.003,11.465
	C245.853,78.998,243.997,79.622,242.151,79.622z"/>
<path style="fill:#77E0C1;" d="M281.339,79.622c-1.846,0-3.702-0.624-5.228-1.904c-3.443-2.889-3.892-8.022-1.003-11.465
	l36.036-42.948c2.889-3.443,8.023-3.893,11.465-1.003c3.443,2.889,3.892,8.022,1.003,11.465l-36.036,42.948
	C285.969,78.634,283.663,79.622,281.339,79.622z"/>
<path style="opacity:0.2;enable-background:new    ;" d="M281.339,79.622c-1.846,0-3.702-0.624-5.228-1.904
	c-3.443-2.889-3.892-8.022-1.003-11.465l36.036-42.948c2.889-3.443,8.023-3.893,11.465-1.003c3.443,2.889,3.892,8.022,1.003,11.465
	l-36.036,42.948C285.969,78.634,283.663,79.622,281.339,79.622z"/>
<path style="fill:#77E0C1;" d="M261.742,87.552v7.884c0,7.295-3.791,14.066-10.011,17.878l-31.943,19.58
	c-6.997,4.288-15.988-0.747-15.988-8.953V87.552H261.742z"/>
<path style="opacity:0.2;enable-background:new    ;" d="M261.742,87.552v7.884c0,7.295-3.791,14.066-10.011,17.878l-31.943,19.58
	c-6.997,4.288-15.988-0.747-15.988-8.953V87.552H261.742z"/>
<path style="opacity:0.1;enable-background:new    ;" d="M209.836,119.158V87.552H203.8v36.389c0,8.207,8.991,13.242,15.988,8.953
	l4.19-2.568C217.084,131.993,209.836,126.864,209.836,119.158z"/>
<path style="fill:#77E0C1;" d="M261.742,87.552v7.884c0,7.295,3.791,14.066,10.011,17.878l31.943,19.58
	c6.997,4.288,15.988-0.747,15.988-8.953V87.552H261.742z"/>
<path style="opacity:0.2;enable-background:new    ;" d="M261.742,87.552v7.884c0,7.295,3.791,14.066,10.011,17.878l31.943,19.58
	c6.997,4.288,15.988-0.747,15.988-8.953V87.552H261.742z"/>
<path style="opacity:0.1;enable-background:new    ;" d="M309.531,129.222l-31.945-19.58c-6.22-3.812-10.011-10.583-10.011-17.878
	v-4.213h-5.834v7.884c0,7.295,3.791,14.066,10.011,17.878l31.943,19.58c4.822,2.956,10.59,1.481,13.71-2.406
	C314.868,131.094,312.07,130.778,309.531,129.222z"/>
<path style="fill:#77E0C1;" d="M207.767,59.018L207.767,59.018c33.624-18.439,74.333-18.439,107.957,0l0,0
	c6.193,3.396,10.043,9.897,10.043,16.961v11.893c0,4.178-3.387,7.564-7.564,7.564H205.289c-4.178,0-7.564-3.387-7.564-7.564V75.978
	C197.724,68.915,201.573,62.413,207.767,59.018z"/>
<path style="opacity:0.1;enable-background:new    ;" d="M214.512,89.741c-4.178,0-7.564-3.387-7.564-7.564V70.281
	c0-5.279,2.152-10.242,5.824-13.832c-1.682,0.816-3.354,1.663-5.003,2.568c-6.193,3.396-10.043,9.897-10.043,16.961v11.893
	c0,4.178,3.387,7.564,7.564,7.564h112.913c3.532,0,6.49-2.424,7.322-5.697H214.512V89.741z"/>
<g style="opacity:0.2;">
	<path d="M261.746,84.378c-4.496,0-8.138-3.644-8.138-8.138V64.386c0-4.495,3.643-8.138,8.138-8.138s8.138,3.644,8.138,8.138V76.24
		C269.884,80.734,266.24,84.378,261.746,84.378z"/>
	<path d="M230.669,83.88c-4.495,0-8.138-3.643-8.138-8.138v-5.295c0-4.496,3.644-8.138,8.138-8.138s8.138,3.643,8.138,8.138v5.295
		C238.808,80.236,235.164,83.88,230.669,83.88z"/>
	<path d="M292.821,83.88c-4.495,0-8.138-3.643-8.138-8.138v-5.295c0-4.496,3.644-8.138,8.138-8.138c4.496,0,8.138,3.643,8.138,8.138
		v5.295C300.959,80.236,297.317,83.88,292.821,83.88z"/>
</g>
<path style="fill:#77E0C1;" d="M300.456,202.545h-77.421h-30.128c-22.587,0-40.962-18.376-40.962-40.962H108.54
	c0,46.52,37.846,84.366,84.366,84.366v194.432h136.779V231.775C329.685,215.632,316.599,202.545,300.456,202.545z"/>
<path style="opacity:0.2;enable-background:new    ;" d="M300.456,202.545h-77.421h-30.128c-22.587,0-40.962-18.376-40.962-40.962
	H108.54c0,46.52,37.846,84.366,84.366,84.366v194.432h136.779V231.775C329.685,215.632,316.599,202.545,300.456,202.545z"/>
<path style="opacity:0.1;enable-background:new    ;" d="M219.106,427.458c-4.792,0-8.675-3.884-8.675-8.675V242.257
	c0-4.998-3.786-9.168-8.757-9.684c-38.141-3.951-68.801-33.422-74.605-70.99H108.54c0,46.52,37.846,84.366,84.366,84.366v194.432
	h136.779v-12.925H219.106V427.458z"/>
<g style="opacity:0.1;">
	<path d="M305.12,264.981c-34.438,34.712-81.879,49.303-112.214,55.344v16.578c32.159-6.051,85.14-21.523,123.769-60.459
		L305.12,264.981z"/>
	<path d="M304.518,315.014c-32.042,40.491-76.798,67.217-111.612,80.261v17.288c23.74-8.243,81.017-32.66,124.375-87.449
		L304.518,315.014z"/>
</g>
<path style="fill:#77E0C1;" d="M161.218,115.12c0-15.104-8.062-44.153-24.149-55.598c-3-2.134-7.218-0.55-8.138,3.014
	c-6.767,26.219-28.265,24.57-29.599,50.025c-0.916,17.492,12.342,32.932,29.848,33.517
	C146.772,146.666,161.218,132.58,161.218,115.12z"/>
<path style="opacity:0.2;enable-background:new    ;" d="M161.218,115.12c0-15.104-8.062-44.153-24.149-55.598
	c-3-2.134-7.218-0.55-8.138,3.014c-6.767,26.219-28.265,24.57-29.599,50.025c-0.916,17.492,12.342,32.932,29.848,33.517
	C146.772,146.666,161.218,132.58,161.218,115.12z"/>
<path style="opacity:0.1;enable-background:new    ;" d="M137.309,136.445c-17.506-0.585-30.765-16.025-29.848-33.517
	c0.215-4.109,0.615-7.989,1.178-11.693c-4.875,5.089-8.763,10.96-9.306,21.327c-0.916,17.492,12.342,32.932,29.848,33.517
	c12.215,0.409,22.908-6.262,28.306-16.221C151.964,134.194,144.934,136.7,137.309,136.445z"/>
<path style="fill:#77E0C1;" d="M130.242,187.01c-4.495,0-8.138-3.643-8.138-8.138v-24.809c0-4.496,3.644-8.138,8.138-8.138
	c4.495,0,8.138,3.643,8.138,8.138v24.809C138.381,183.366,134.737,187.01,130.242,187.01z"/>
<path style="opacity:0.15;enable-background:new    ;" d="M134.933,183.265c-4.495,0-8.138-3.643-8.138-8.138v-24.809
	c0-1.472,0.397-2.85,1.081-4.041c-3.34,1.015-5.772,4.115-5.772,7.787v24.809c0,4.496,3.644,8.138,8.138,8.138
	c3.022,0,5.655-1.652,7.058-4.097C136.551,183.14,135.757,183.265,134.933,183.265z"/>
<path style="fill:#77E0C1;" d="M162.153,138.126H98.332c-3.628,0-6.568,2.941-6.568,6.568v12.545c0,3.628,2.941,6.568,6.568,6.568
	h63.822c3.628,0,6.568-2.941,6.568-6.568v-12.545C168.721,141.066,165.781,138.126,162.153,138.126z"/>
<path style="opacity:0.1;enable-background:new    ;" d="M105.856,156.779c-3.628,0-6.568-2.941-6.568-6.568v-12.084h-0.956
	c-3.628,0-6.568,2.941-6.568,6.568v12.545c0,3.628,2.941,6.568,6.568,6.568h63.822c3.628,0,6.568-2.941,6.568-6.568v-0.46h-62.866
	V156.779z"/>
<path style="fill:#77E0C1;" d="M323.838,352.633l-53.798-53.798c-3.208-3.208-3.208-8.408,0-11.616l82.377-82.377
	c3.208-3.208,8.409-3.208,11.616,0l53.798,53.798c3.208,3.208,3.208,8.409,0,11.616l-82.377,82.377
	C332.245,355.841,327.045,355.841,323.838,352.633z"/>
<path style="opacity:0.1;enable-background:new    ;" d="M352.417,204.843C352.417,204.843,352.417,204.844,352.417,204.843
	L270.04,287.22c-3.208,3.208-3.208,8.409,0,11.616l53.798,53.798c3.208,3.208,8.408,3.208,11.616,0l9.946-9.946
	c-3.208,3.207-8.407,3.207-11.615,0l-53.798-53.798c-3.208-3.208-3.208-8.409,0-11.616L352.417,204.843z M407.884,280.203
	l9.947-9.947l0,0L407.884,280.203z"/>
<g style="opacity:0.2;">
	<path d="M369.543,288.058c-2.082,0-4.166-0.794-5.755-2.383l-26.789-26.788c-3.178-3.179-3.178-8.331,0-11.51
		c3.179-3.177,8.331-3.177,11.51,0l26.789,26.789c3.178,3.179,3.178,8.331,0,11.51C373.707,287.263,371.625,288.058,369.543,288.058
		z"/>
	<path d="M349.449,299.167c-2.082,0-4.166-0.795-5.755-2.383l-16.269-16.269c-3.178-3.179-3.178-8.331,0-11.51
		c3.179-3.177,8.331-3.177,11.51,0l16.269,16.269c3.178,3.179,3.178,8.331,0,11.51C353.614,298.372,351.531,299.167,349.449,299.167
		z"/>
</g>
<path style="fill:#77E0C1;" d="M362.527,511.999H160.064c-6.517,0-11.801-5.283-11.801-11.801v-48.016
	c0-6.517,5.283-11.801,11.801-11.801h202.464c6.517,0,11.801,5.283,11.801,11.801v48.016
	C374.328,506.717,369.044,511.999,362.527,511.999z"/>
<path style="opacity:0.1;enable-background:new    ;" d="M173.628,501.149c-6.517,0-11.801-5.283-11.801-11.801v-48.016
	c0-0.321,0.023-0.636,0.048-0.949h-1.811c-6.517,0-11.801,5.283-11.801,11.801v48.016c0,6.517,5.283,11.801,11.801,11.801h202.464
	c6.197,0,11.268-4.779,11.753-10.851H173.628z"/>
<g>
</g>
<g>
</g>
<g>
</g>
<g>
</g>
<g>
</g>
<g>
</g>
<g>
</g>
<g>
</g>
<g>
</g>
<g>
</g>
<g>
</g>
<g>
</g>
<g>
</g>
<g>
</g>
<g>
</g>
</svg>
