<?xml version="1.0" encoding="iso-8859-1"?>
<!-- Generator: Adobe Illustrator 19.0.0, SVG Export Plug-In . SVG Version: 6.00 Build 0)  -->
<svg version="1.1" id="Layer_1" xmlns="http://www.w3.org/2000/svg" xmlns:xlink="http://www.w3.org/1999/xlink" x="0px" y="0px"
	 viewBox="0 0 512 512" style="enable-background:new 0 0 512 512;" xml:space="preserve">
<g>
	<path style="fill:#5ECC66;" d="M128,384c0,15.125,12.304,27.429,27.429,27.429c15.125,0,27.429-12.304,27.429-27.429
		c0-15.125-12.304-27.429-27.429-27.429C140.304,356.571,128,368.875,128,384z"/>
	<path style="fill:#5ECC66;" d="M402.286,128c-15.125,0-27.429,12.304-27.429,27.429c0,15.125,12.304,27.429,27.429,27.429
		s27.429-12.304,27.429-27.429C429.714,140.304,417.411,128,402.286,128z"/>
</g>
<path style="fill:#E9E7D1;" d="M256,18.286C124.924,18.286,18.286,124.92,18.286,256S124.924,493.714,256,493.714
	S493.714,387.08,493.714,256S387.076,18.286,256,18.286z M116.638,126.429l12.928-12.928l25.862,25.861L181.29,113.5l12.928,12.928
	l-25.862,25.862l25.862,25.862L181.29,191.08l-25.862-25.862l-25.862,25.862l-12.928-12.928L142.5,152.29L116.638,126.429z
	 M165.984,339.637c20.111,4.795,35.159,22.806,35.159,44.363c0,25.205-20.509,45.714-45.714,45.714S109.714,409.205,109.714,384
	c0-22.524,16.412-41.183,37.883-44.923c2.517-27.177,20.78-111.307,147.805-152.716l-30.077-12.763
	c-4.647-1.973-6.817-7.348-4.844-11.991c1.978-4.652,7.339-6.813,11.987-4.848l50.496,21.437c4.647,1.973,6.817,7.348,4.844,11.991
	l-21.433,50.491c-1.478,3.482-4.862,5.571-8.42,5.571c-1.192,0-2.402-0.232-3.567-0.723c-4.647-1.973-6.817-7.348-4.844-11.991
	l12.835-30.238C186.706,240.516,168.736,315.716,165.984,339.637z M361.924,388.438l-12.928,12.928l-25.859-25.861l-25.859,25.861
	l-12.928-12.928l25.86-25.862l-25.86-25.862l12.928-12.928l25.859,25.861l25.859-25.861l12.928,12.928l-25.86,25.862
	L361.924,388.438z M402.286,201.143c-25.205,0-45.714-20.509-45.714-45.714s20.509-45.714,45.714-45.714S448,130.223,448,155.429
	S427.491,201.143,402.286,201.143z"/>
<g>
	<path style="fill:#314E55;" d="M256,0C114.839,0,0,114.839,0,256s114.839,256,256,256s256-114.839,256-256S397.161,0,256,0z
		 M256,493.714C124.924,493.714,18.286,387.08,18.286,256S124.924,18.286,256,18.286S493.714,124.92,493.714,256
		S387.076,493.714,256,493.714z"/>
	<polygon style="fill:#314E55;" points="129.567,191.08 155.429,165.219 181.29,191.08 194.219,178.152 168.357,152.29 
		194.219,126.429 181.29,113.5 155.429,139.362 129.567,113.5 116.638,126.429 142.5,152.29 116.638,178.152 	"/>
	<polygon style="fill:#314E55;" points="348.995,323.786 323.136,349.647 297.277,323.786 284.348,336.714 310.208,362.576 
		284.348,388.438 297.277,401.366 323.136,375.505 348.995,401.366 361.924,388.438 336.064,362.576 361.924,336.714 	"/>
	<path style="fill:#314E55;" d="M289.545,233.536c-1.973,4.643,0.196,10.018,4.844,11.991c1.165,0.491,2.375,0.723,3.567,0.723
		c3.558,0,6.942-2.089,8.42-5.571l21.433-50.491c1.973-4.643-0.196-10.018-4.844-11.991l-50.496-21.437
		c-4.647-1.964-10.009,0.196-11.987,4.848c-1.973,4.643,0.196,10.018,4.844,11.991l30.077,12.763
		c-127.025,41.409-145.288,125.539-147.805,152.716c-21.471,3.739-37.883,22.398-37.883,44.922
		c0,25.205,20.509,45.714,45.714,45.714s45.714-20.509,45.714-45.714c0-21.557-15.048-39.568-35.159-44.363
		c2.752-23.921,20.722-99.122,136.396-136.34L289.545,233.536z M182.857,384c0,15.125-12.304,27.429-27.429,27.429
		C140.304,411.429,128,399.125,128,384c0-15.125,12.304-27.429,27.429-27.429C170.554,356.571,182.857,368.875,182.857,384z"/>
	<path style="fill:#314E55;" d="M402.286,109.714c-25.205,0-45.714,20.509-45.714,45.714s20.509,45.714,45.714,45.714
		S448,180.634,448,155.429S427.491,109.714,402.286,109.714z M402.286,182.857c-15.125,0-27.429-12.304-27.429-27.429
		c0-15.125,12.304-27.429,27.429-27.429s27.429,12.304,27.429,27.429C429.714,170.554,417.411,182.857,402.286,182.857z"/>
</g>
<g>
</g>
<g>
</g>
<g>
</g>
<g>
</g>
<g>
</g>
<g>
</g>
<g>
</g>
<g>
</g>
<g>
</g>
<g>
</g>
<g>
</g>
<g>
</g>
<g>
</g>
<g>
</g>
<g>
</g>
</svg>
