<?xml version="1.0" encoding="iso-8859-1"?>
<!-- Generator: Adobe Illustrator 19.0.0, SVG Export Plug-In . SVG Version: 6.00 Build 0)  -->
<svg version="1.1" id="Layer_1" xmlns="http://www.w3.org/2000/svg" xmlns:xlink="http://www.w3.org/1999/xlink" x="0px" y="0px"
	 viewBox="0 0 509.287 509.287" style="enable-background:new 0 0 509.287 509.287;" xml:space="preserve">
<circle style="fill:#6EB1E1;" cx="254.644" cy="254.644" r="254.644"/>
<circle style="fill:#FCFCFD;" cx="254.644" cy="254.644" r="221.075"/>
<rect x="232.265" y="244.132" style="fill:#F0BA7A;" width="44.419" height="32.551"/>
<circle style="fill:#4F5565;" cx="254.644" cy="193.611" r="50.183"/>
<polygon style="fill:#DEDEDF;" points="225.823,265.155 254.644,266.511 283.465,265.155 276.683,359.078 232.604,359.078 "/>
<polygon style="fill:#F0582F;" points="247.862,286.517 239.724,340.09 254.644,359.078 269.563,340.09 261.425,286.517 "/>
<path style="fill:#4B5AA7;" d="M225.483,265.155c-2.034,0.678-65.441,29.16-65.441,29.16l-15.258,64.763h109.86L225.483,265.155z"/>
<polygon style="fill:#257DC0;" points="225.483,265.155 212.938,270.58 193.272,300.419 211.921,306.522 195.306,325.51 
	232.604,359.078 254.644,359.078 "/>
<path style="fill:#4B5AA7;" d="M283.804,265.155c2.034,0.678,65.441,29.16,65.441,29.16l15.258,64.763h-109.86L283.804,265.155z"/>
<polygon style="fill:#257DC0;" points="283.804,265.155 296.35,270.58 316.016,300.419 297.367,306.522 313.981,325.51 
	276.683,359.078 254.644,359.078 "/>
<polygon style="fill:#D54232;" points="258.034,266.85 251.253,266.85 239.724,278.379 247.862,286.517 261.425,286.517 
	269.563,278.379 "/>
<g>
	<polygon style="fill:#F1F3F7;" points="225.823,265.155 231.926,254.305 254.644,266.511 238.029,288.89 	"/>
	<polygon style="fill:#F1F3F7;" points="283.465,265.155 277.362,254.305 254.644,266.511 271.258,288.89 	"/>
</g>
<path style="fill:#4F5565;" d="M220.397,192.593c0,0,35.264,2.034,50.183-19.666c0,0,4.408,12.885,16.615,17.632v17.632h6.103
	c0-1.695,0.339-3.391,0.339-5.086c0-28.482-17.293-51.2-38.654-51.2s-38.654,23.057-38.654,51.2c0,1.695,0,3.391,0.339,5.086h4.408
	v-15.597H220.397z"/>
<path style="fill:#F7CFA2;" d="M287.195,208.191v-17.632c-12.207-5.086-16.615-17.632-16.615-17.632
	c-14.919,21.701-50.183,19.666-50.183,19.666v15.597h-4.408c2.034,26.109,18.31,46.114,38.654,46.114
	c20.005,0,36.62-20.344,38.654-46.114L287.195,208.191L287.195,208.191z"/>
<g>
	<rect x="220.058" y="19.666" style="fill:#6EB1E1;" width="69.171" height="67.475"/>
	<polygon style="fill:#6EB1E1;" points="194.967,77.648 254.644,137.325 314.321,77.648 	"/>
	<rect x="220.058" y="422.485" style="fill:#6EB1E1;" width="69.171" height="67.475"/>
	<polygon style="fill:#6EB1E1;" points="314.321,431.64 254.644,371.963 194.967,431.64 	"/>
	<rect x="422.485" y="220.058" style="fill:#6EB1E1;" width="67.475" height="69.171"/>
	<polygon style="fill:#6EB1E1;" points="431.64,194.967 371.963,254.644 431.64,314.321 	"/>
	<rect x="19.666" y="220.058" style="fill:#6EB1E1;" width="67.475" height="69.171"/>
	<polygon style="fill:#6EB1E1;" points="77.648,314.321 137.325,254.644 77.648,194.967 	"/>
</g>
<g>
</g>
<g>
</g>
<g>
</g>
<g>
</g>
<g>
</g>
<g>
</g>
<g>
</g>
<g>
</g>
<g>
</g>
<g>
</g>
<g>
</g>
<g>
</g>
<g>
</g>
<g>
</g>
<g>
</g>
</svg>
