<?xml version="1.0" encoding="iso-8859-1"?>
<!-- Generator: Adobe Illustrator 19.0.0, SVG Export Plug-In . SVG Version: 6.00 Build 0)  -->
<svg version="1.1" id="Layer_1" xmlns="http://www.w3.org/2000/svg" xmlns:xlink="http://www.w3.org/1999/xlink" x="0px" y="0px"
	 viewBox="0 0 512.001 512.001" style="enable-background:new 0 0 512.001 512.001;" xml:space="preserve">
<path style="fill:#1A91A1;" d="M256,0.002c141.385,0,256,114.615,256,256S397.385,511.999,256,511.999S0,397.384,0,256.002
	C0,114.614,114.615,0.002,256,0.002z"/>
<path style="fill:#15BDB1;" d="M339.501,112.932c0,0,49.509,20.821,97.172,23.353c47.66,2.529,75.078-7.171,72.969,27.416
	c-2.109,34.587-40.066,209.198-136.231,201.604c0,0-53.562,0-70.436-104.18c0,0-3.798-75.501,5.06-120.632
	c8.855-45.131,31.468-27.565,31.468-27.565L339.501,112.932z M339.787,287.596L339.787,287.596
	c-0.157,1.545-3.003,22.82,6.23,23.683c9.238,0.863,15.754-13.39,39.138-8.501c23.384,4.892,22.841,26.975,32.628,23.846
	c9.781-3.127,16.593-23.555,12.653-30.136c-3.942-6.581-25.131-8.26-41.795-11.932c-14.411-3.3-28.798-8.698-35.133-8.921
	c-10.329-0.367-12.693,7.061-13.721,11.964V287.596z M386.426,175.108L386.426,175.108c-4.168-7.83-47.046,2.235-51.707,6.001
	c-4.661,3.769,9.388,16.764,26.466,17.503C378.261,199.358,387.667,179.124,386.426,175.108z M421.916,181.524L421.916,181.524
	c-2.473,3.397-0.134,25.585,16.265,30.419c16.396,4.834,33.9-2.909,30.708-7.982c-3.192-5.076-40.491-28.491-46.973-22.435V181.524z
	"/>
<path style="fill:#20D0C2;" d="M341.746,115.76c0,0,49.507,20.819,97.172,23.35c47.66,2.531,75.078-7.169,72.969,27.416
	c-2.109,34.587-40.069,209.198-136.231,201.607c0,0-53.562,0-70.436-104.181c0,0-3.798-75.501,5.06-120.629
	c8.855-45.131,31.468-27.563,31.468-27.563H341.746z M342.032,290.423L342.032,290.423c-0.157,1.548-3.003,22.82,6.23,23.683
	c9.236,0.863,15.754-13.39,39.138-8.501c23.384,4.892,22.841,26.975,32.628,23.846c9.781-3.129,16.593-23.557,12.653-30.138
	c-3.942-6.581-25.131-8.257-41.795-11.929c-14.411-3.3-28.801-8.701-35.133-8.923c-10.329-0.365-12.693,7.059-13.718,11.961
	L342.032,290.423z M388.672,177.938L388.672,177.938c-4.168-7.832-47.046,2.235-51.707,6.001
	c-4.664,3.767,9.388,16.761,26.466,17.503C380.506,202.185,389.912,181.952,388.672,177.938z M424.161,184.352L424.161,184.352
	c-2.473,3.399-0.134,25.585,16.263,30.419c16.399,4.837,33.9-2.909,30.71-7.982C467.941,201.713,430.642,178.298,424.161,184.352z"
	/>
<path style="fill:#F5A209;" d="M222.541,64.281c0,0-62.076,44.431-127.347,62.928C29.923,145.704-11.132,140.883,2.67,188.163
	c13.8,47.277,121.324,277.38,252.236,236.616c0,0,74.247-16.845,64.87-166.561c0,0-18.479-105.849-44.948-165.622
	c-26.469-59.776-52.29-28.313-52.29-28.313L222.541,64.281z M211.128,321.404L211.128,321.404c0,0,32.213-13.766,47.783-37.278
	c8.304-12.541,14.977-25.918,19.788-30.97c2.922-3.066,5.057-3.134,6.159,1.723c2.919,12.863,14.335,109.246-43.046,132.714
	c-57.381,23.468-127.465-63.29-127.489-68.817c-0.026-5.527,25.559,8.339,50.763,9.692c25.202,1.353,46.044-7.064,46.044-7.064
	H211.128z M201.41,211.025L201.41,211.025c-4.955-3.334-12.611-34.11,6.943-48.531c19.555-14.424,46.692-12.588,44.898-4.257
	C251.457,166.565,213.009,215.964,201.41,211.025z M147.911,229.577L147.911,229.577c-3.392,12.145-65.984,11.282-73.609,7.478
	c-7.625-3.803,7.903-26.138,31.384-32.389C129.165,198.416,148.407,223.623,147.911,229.577z"/>
<path style="fill:#FBB429;" d="M227.721,65.448c0,0-62.081,44.431-127.347,62.926C35.104,146.872-5.952,142.045,7.848,189.325
	c13.8,47.277,121.327,277.38,252.239,236.616c0,0,74.244-16.842,64.87-166.558c0,0-18.479-105.849-44.948-165.622
	C253.537,33.988,227.721,65.448,227.721,65.448z M216.309,322.571L216.309,322.571c0,0,32.213-13.768,47.783-37.278
	c8.304-12.541,14.977-25.915,19.788-30.967c2.922-3.066,5.055-3.137,6.159,1.723c2.919,12.861,14.332,109.246-43.046,132.714
	c-57.378,23.468-127.465-63.293-127.489-68.817c-0.026-5.527,25.559,8.339,50.763,9.689c25.202,1.353,46.044-7.061,46.044-7.061
	L216.309,322.571z M206.588,212.19L206.588,212.19c-4.957-3.331-12.611-34.107,6.943-48.528
	c19.555-14.427,46.695-12.588,44.901-4.26C256.637,167.73,218.189,217.131,206.588,212.19z M153.092,230.742L153.092,230.742
	c-3.392,12.142-65.987,11.282-73.609,7.478c-7.625-3.801,7.903-26.141,31.382-32.389S153.585,224.79,153.092,230.742z"/>
<g>
</g>
<g>
</g>
<g>
</g>
<g>
</g>
<g>
</g>
<g>
</g>
<g>
</g>
<g>
</g>
<g>
</g>
<g>
</g>
<g>
</g>
<g>
</g>
<g>
</g>
<g>
</g>
<g>
</g>
</svg>
