<?xml version="1.0" encoding="iso-8859-1"?>
<!-- Generator: Adobe Illustrator 19.0.0, SVG Export Plug-In . SVG Version: 6.00 Build 0)  -->
<svg version="1.1" id="Layer_1" xmlns="http://www.w3.org/2000/svg" xmlns:xlink="http://www.w3.org/1999/xlink" x="0px" y="0px"
	 viewBox="0 0 487.882 487.882" style="enable-background:new 0 0 487.882 487.882;" xml:space="preserve">
<g transform="matrix(1.0004 0 0 1.0002 938.58 -540.54)">
	<g transform="translate(0 540.36)">
		<path style="fill:#F29F4A;" d="M-693.579,7.975c-48.347-0.219-95.632,14.156-135.658,41.24
			c-73.79,50.036-112.399,152.248-103.855,225.357c1.146,9.804,2.054,17.789,3.999,27.041l467.3,0.027
			c1.268-3.052,2.366-11.562,2.993-14.668c18.944-93.978-25.513-189.276-106.293-241.049
			C-603.445,21.345-648.011,8.182-693.579,7.975L-693.579,7.975z"/>
		<path style="fill:#3B3C3D;" d="M-694.84,169.778c-38.677,0-69.801,31.091-69.801,69.721v62.125l-89.506-0.006
			c0.426-1.348,0.682-2.933,0.682-4.65v-3.654c0.575,0.641,1.575,1.066,2.723,1.066c0.598,0,1.149-0.122,1.629-0.322
			c1.562-0.224,2.762-1.619,2.762-3.332v-7c0-1.87-1.425-3.375-3.195-3.375c-1.771,0-3.197,1.505-3.197,3.375v6.525
			c-0.281,0.159-0.527,0.346-0.721,0.563v-11.965c0-4.84-1.954-8.734-4.381-8.734s-4.381,3.895-4.381,8.734v15.898
			c-0.362-0.305-0.893-0.55-1.535-0.703c0.105-0.468,0.176-0.961,0.176-1.482v-9.779c0-2.612-1.427-4.715-3.197-4.715
			s-3.195,2.103-3.195,4.715v9.779c0,2.495,1.304,4.504,2.963,4.682c0.51,0.139,1.086,0.225,1.709,0.225
			c1.318,0,2.454-0.356,3.08-0.883v0.383c0,1.717,0.256,3.303,0.682,4.65l-67.225-0.004
			c22.893,108.357,120.333,186.116,233.379,186.242c113.12-0.022,210.676-77.79,233.598-186.215l-51.957-0.004
			c0.429-1.351,0.686-2.945,0.686-4.67v-3.656c0.575,0.642,1.574,1.11,2.723,1.068c2.222-0.082,4.343-1.761,4.393-3.654v-7
			c0-1.87-1.427-3.375-3.197-3.375s-3.195,1.505-3.195,3.375v6.525c-0.282,0.159-0.528,0.347-0.723,0.564v-11.967
			c0-4.84-1.954-8.734-4.381-8.734c-2.427,0-4.379,3.895-4.379,8.734v15.898c-0.362-0.305-0.894-0.55-1.537-0.703
			c0.105-0.468,0.176-0.961,0.176-1.482v-9.779c0-2.612-1.425-4.715-3.195-4.715c-1.771,0-3.195,2.103-3.195,4.715v9.779
			c0,2.494,1.303,4.503,2.961,4.682c0.51,0.139,1.086,0.225,1.709,0.225c1.318,0,2.456-0.355,3.082-0.883v0.383
			c0,1.725,0.256,3.318,0.686,4.67l-103.863-0.006v-62.133C-625.002,200.868-656.163,169.777-694.84,169.778L-694.84,169.778z"/>
		<path style="fill:#F29F4A;" d="M-713.067,189.721c-12.568,0-22.689,9.138-22.689,20.48v72.076c0,8.395,5.551,15.571,13.527,18.74
			l-90.395,156.563c4.471,2.479,9.03,4.817,13.668,7.014l83.305-161.969c0.848,0.086,1.709,0.135,2.584,0.135h13.262l-2.168,26.668
			l12.914-0.127l-2.316-26.541h14.799c0.531,0,1.056-0.023,1.578-0.055l84.988,161.121c3.804-1.836,7.553-3.768,11.244-5.795
			l-88.209-157.205c7.737-3.256,13.088-10.311,13.088-18.549v-72.076c0-11.343-10.121-20.48-22.689-20.48H-713.067z
			 M-702.852,194.044h16.063c3.396,0,6.119,2.317,6.119,5.178c0,2.861-2.723,5.18-6.119,5.18h-16.063
			c-3.396,0-6.121-2.319-6.121-5.18C-708.973,196.361-706.248,194.044-702.852,194.044z M-713.379,208.217h37.115
			c8.219,0,14.854,5.987,14.854,13.395v14.484c0,7.408-6.634,13.355-14.854,13.355h-37.115c-8.219,0-14.814-5.948-14.814-13.355
			v-14.484C-728.194,214.204-721.599,208.217-713.379,208.217z M-718.758,277.215c4.508,0,8.148,3.391,8.148,7.594
			s-3.64,7.633-8.148,7.633s-8.148-3.43-8.148-7.633S-723.266,277.215-718.758,277.215z M-670.885,277.215
			c4.508,0,8.188,3.391,8.188,7.594s-3.68,7.633-8.188,7.633s-8.146-3.43-8.146-7.633S-675.393,277.215-670.885,277.215z"/>
		<path style="fill:#3B3C3D;" d="M-775.444,46.188l20.854,12.902c-7.362,4.025-12.445,9.692-14.283,15.926l20.012-12.381
			l8.549,5.289c-0.824-2.754-2.29-5.421-4.34-7.895l10.91-6.75c-5.058,0.325-10.019,1.346-14.584,3.002
			C-755.087,50.525-764.926,46.863-775.444,46.188z M-740.313,67.924l35.129-21.736C-722.388,47.29-736.872,56.251-740.313,67.924z
			 M-768.873,75.016c-3.441-11.673-17.925-20.635-35.129-21.736L-768.873,75.016z"/>
	</g>
	<g>
		<path style="fill:#F29F4A;" d="M-705.901,992.687v35.293c3.487,0.153,6.991,0.232,10.51,0.236
			c3.519-0.001,7.022-0.077,10.51-0.227v-35.303H-705.901z"/>
		<path style="fill:#F29F4A;" d="M-705.23,980.621h19.678l-1.141-44.819l-17.281,0.222L-705.23,980.621z"/>
		<path style="fill:#F29F4A;" d="M-689.047,877.839l-13.165,0.309l-1.82,45.128l17.281-0.222L-689.047,877.839z"/>
	</g>
	<g>
		
			<linearGradient id="SVGID_1_" gradientUnits="userSpaceOnUse" x1="-645.0774" y1="463.0561" x2="-536.8974" y2="463.0561" gradientTransform="matrix(1.0004 0 0 -1.0002 938.6044 1038.4227)">
			<stop  offset="0" style="stop-color:#F6851F"/>
			<stop  offset="1" style="stop-color:#F6851F;stop-opacity:0"/>
		</linearGradient>
		<path style="fill:url(#SVGID_1_);" d="M-610.619,575.274c0,19.243-15.618,34.842-34.884,34.842l0,0
			c-19.266,0-34.884-15.599-34.884-34.842l0,0c0-19.243,15.618-34.842,34.884-34.842l0,0
			C-626.238,540.432-610.619,556.031-610.619,575.274L-610.619,575.274z"/>
	</g>
	<g>
		<path style="fill:#F29F4A;" d="M-696.538,722.241c0,2.551-2.071,4.62-4.625,4.62s-4.625-2.068-4.625-4.62s2.071-4.62,4.625-4.62
			c0,0,0,0,0,0C-698.609,717.621-696.538,719.689-696.538,722.241C-696.538,722.241-696.538,722.241-696.538,722.241z"/>
		<path style="fill:#F29F4A;" d="M-682.934,722.241c0,2.551-2.071,4.62-4.625,4.62s-4.625-2.068-4.625-4.62s2.071-4.62,4.625-4.62
			c0,0,0,0,0,0C-685.005,717.621-682.934,719.689-682.934,722.241C-682.934,722.241-682.934,722.241-682.934,722.241z"/>
	</g>
</g>
<g>
</g>
<g>
</g>
<g>
</g>
<g>
</g>
<g>
</g>
<g>
</g>
<g>
</g>
<g>
</g>
<g>
</g>
<g>
</g>
<g>
</g>
<g>
</g>
<g>
</g>
<g>
</g>
<g>
</g>
</svg>
