<?xml version="1.0" encoding="iso-8859-1"?>
<!-- Generator: Adobe Illustrator 19.0.0, SVG Export Plug-In . SVG Version: 6.00 Build 0)  -->
<svg version="1.1" id="Layer_1" xmlns="http://www.w3.org/2000/svg" xmlns:xlink="http://www.w3.org/1999/xlink" x="0px" y="0px"
	 viewBox="0 0 512.001 512.001" style="enable-background:new 0 0 512.001 512.001;" xml:space="preserve">
<polygon style="fill:#FCE8CA;" points="171.639,243.22 11.903,243.22 11.903,448.257 161.93,448.257 "/>
<g>
	<path style="fill:#B3B3B3;" d="M70.154,259.503c-3.33,0-6.03-2.7-6.03-6.031v-18.091c0-3.33,2.7-6.031,6.03-6.031
		s6.03,2.7,6.03,6.031v18.091C76.184,256.802,73.484,259.503,70.154,259.503z"/>
	<path style="fill:#B3B3B3;" d="M103.076,259.503c-3.33,0-6.031-2.7-6.031-6.031v-18.091c0-3.33,2.7-6.031,6.031-6.031
		c3.33,0,6.03,2.7,6.03,6.031v18.091C109.106,256.802,106.406,259.503,103.076,259.503z"/>
	<path style="fill:#B3B3B3;" d="M135.999,259.503c-3.33,0-6.031-2.7-6.031-6.031v-18.091c0-3.33,2.7-6.031,6.031-6.031
		c3.33,0,6.03,2.7,6.03,6.031v18.091C142.029,256.802,139.329,259.503,135.999,259.503z"/>
</g>
<g>
	<rect x="41.455" y="294.481" style="fill:#666666;" width="140.378" height="13.267"/>
	<rect x="41.455" y="330.736" style="fill:#666666;" width="140.378" height="13.267"/>
	<rect x="41.455" y="366.992" style="fill:#666666;" width="140.378" height="13.267"/>
	<rect x="41.455" y="403.259" style="fill:#666666;" width="140.378" height="13.267"/>
</g>
<g>
	<path style="fill:#E0B394;" d="M139.848,225.966c-14.956-0.663-26.86-13.002-26.86-28.114c0-15.535,12.592-28.138,28.138-28.138
		c1.399,0,2.774,0.096,4.125,0.302L139.848,225.966z"/>
	<path style="fill:#E0B394;" d="M391.706,225.966c14.956-0.663,26.872-13.002,26.872-28.114c0-15.535-12.604-28.138-28.15-28.138
		c-1.399,0-2.786,0.109-4.125,0.302L391.706,225.966z"/>
</g>
<path style="fill:#666666;" d="M322.66,327.918H208.914c-41.196,0-74.592,33.396-74.592,74.592v109.491h262.93V402.51
	C397.252,361.313,363.856,327.918,322.66,327.918z"/>
<g>
	<path style="fill:#4D4D4D;" d="M254.874,327.918h-45.96c-41.196,0-74.592,33.396-74.592,74.592v109.491h45.96V402.51
		C180.282,361.313,213.679,327.918,254.874,327.918z"/>
	<polygon style="fill:#4D4D4D;" points="380.295,273.631 417.764,305.335 265.792,418.708 113.818,305.335 152.424,272.669 	"/>
</g>
<path style="fill:#F7CBA4;" d="M385.468,275.467c-3.835,8.491-8.973,16.379-15.281,23.386c-3.642,4.04-7.671,7.791-12.061,11.181
	c-0.699,0.543-1.399,1.073-2.123,1.592l-18.526,13.46l-12.061,8.756l-18.924,13.75c-0.567,0.422-1.146,0.82-1.737,1.218
	c-3.835,2.617-7.876,4.812-12.061,6.561c-17.187,7.261-36.629,7.261-53.816,0c-4.173-1.749-8.226-3.944-12.061-6.561
	c-0.591-0.398-1.17-0.796-1.737-1.218l-18.924-13.75l-12.061-8.756l-18.526-13.46c-0.724-0.519-1.423-1.049-2.123-1.592
	c-4.39-3.389-8.419-7.14-12.061-11.181c-16.946-18.815-25.521-44.095-23.024-69.857l5.801-60.003l2.786-28.862
	c1.918-19.913,8.672-38.306,19.02-54.033c21.432-32.625,58.339-53.876,99.817-53.876c30.743,0,58.966,11.675,80.254,31.009
	c7.43,6.742,14.015,14.425,19.563,22.868c10.348,15.728,17.09,34.121,19.02,54.033l0.844,8.744l1.942,20.118l5.801,60.003
	C394.767,245.169,391.969,261.15,385.468,275.467z"/>
<g>
	<path style="fill:#E8BA97;" d="M279.657,177.929v57.53c0,7.66-6.21,13.87-13.87,13.87l0,0c-7.66,0-13.87-6.21-13.87-13.87v-57.53
		H279.657z"/>
	<path style="fill:#E8BA97;" d="M169.172,246.506c-0.832,14.075,3.751,27.921,12.821,38.716l51.745,63.586
		c2.702,3.22,5.765,5.922,9.082,8.081c-6.223-2.171-12.206-5.283-17.742-9.299l-49.51-35.966
		c-26.16-19.008-40.308-50.439-37.196-82.63l8.575-88.865c5.862-60.606,56.349-106.993,117.052-107.874
		c-37.389,0.905-79.727,36.147-81.934,73.681L169.172,246.506z"/>
	<path style="fill:#E8BA97;" d="M387.41,168.992c-34.41,11.386-76.346,19.346-121.623,19.346s-87.213-7.96-121.623-19.346
		l2.786-28.862c1.918-19.913,8.672-38.306,19.02-54.033c2.931,0.024,5.898,0.048,8.913,0.072H356.51
		c3.076-0.024,6.103-0.048,9.094-0.072c10.348,15.728,17.09,34.121,19.02,54.033L387.41,168.992z"/>
</g>
<path style="fill:#A07C64;" d="M291.923,279.717c0,0-0.222,0.033-0.618,0.057c-0.388,0.011-0.983,0.071-1.691,0.059
	c-0.361,0.008-0.748-0.013-1.17-0.022c-0.414,0.045-0.831,0.059-1.274,0.096c-0.874,0.055-1.766,0.08-2.817,0.197
	c-0.511,0.051-1.02,0.055-1.545,0.094c-0.536,0.086-1.067,0.124-1.61,0.191c-1.069,0.034-2.19,0.334-3.289,0.403
	c-1.111,0.254-2.226,0.333-3.341,0.61c-1.124,0.159-2.22,0.503-3.344,0.698c-1.089,0.34-2.219,0.54-3.291,0.913
	c-1.116,0.264-2.144,0.701-3.248,0.983c-1.007,0.441-2.143,0.683-3.107,1.142c-0.513,0.188-1.006,0.392-1.518,0.563
	c-0.485,0.204-0.943,0.428-1.418,0.619c-0.977,0.359-1.826,0.79-2.643,1.159c-0.419,0.176-0.798,0.361-1.188,0.51
	c-0.362,0.181-0.694,0.346-0.994,0.496c-0.609,0.306-1.165,0.521-1.518,0.69c-0.365,0.162-0.584,0.24-0.584,0.24
	s-0.016-0.218-0.001-0.612c0.025-0.386,0.025-0.987,0.125-1.717c0.039-0.373,0.105-0.776,0.182-1.219
	c0.098-0.429,0.246-0.87,0.391-1.363c0.146-0.492,0.341-0.994,0.537-1.546c0.193-0.555,0.509-1.046,0.79-1.62
	c0.298-0.557,0.639-1.12,0.995-1.715c0.396-0.551,0.842-1.093,1.295-1.672c0.897-1.174,2.077-2.161,3.295-3.23
	c1.307-0.912,2.675-1.914,4.233-2.587c1.514-0.789,3.179-1.274,4.84-1.757c1.698-0.324,3.404-0.645,5.109-0.632
	c1.695-0.109,3.367,0.157,4.946,0.376c0.786,0.186,1.553,0.378,2.289,0.604c0.739,0.206,1.447,0.447,2.113,0.771
	c0.667,0.309,1.312,0.583,1.914,0.897c0.587,0.367,1.149,0.709,1.667,1.071c0.517,0.384,1.003,0.666,1.455,1.084
	c0.447,0.41,0.867,0.772,1.23,1.151c0.364,0.376,0.702,0.707,0.987,1.044c0.246,0.346,0.467,0.662,0.659,0.968
	c0.394,0.589,0.667,1.12,0.87,1.452C291.829,279.513,291.923,279.717,291.923,279.717z"/>
<path style="fill:#4D4D4D;" d="M212.095,229.423c-4.996,0-9.046-4.05-9.046-9.046v-14.468c0-4.996,4.05-9.046,9.046-9.046
	c4.996,0,9.046,4.05,9.046,9.046v14.468C221.141,225.374,217.091,229.423,212.095,229.423z"/>
<g>
	<path style="fill:#666666;" d="M298.798,189.949c0,0,0.034-0.23,0.129-0.627c0.106-0.385,0.223-0.991,0.447-1.68
		c0.103-0.356,0.232-0.728,0.378-1.136c0.186-0.412,0.429-0.829,0.686-1.299c0.256-0.473,0.574-0.942,0.907-1.465
		c0.335-0.534,0.736-0.938,1.145-1.453c0.414-0.495,0.878-0.976,1.362-1.491c0.51-0.467,1.075-0.901,1.652-1.377
		c1.143-0.988,2.542-1.68,3.991-2.469c1.5-0.613,3.088-1.286,4.786-1.593c1.681-0.428,3.443-0.525,5.201-0.608
		c1.756,0.082,3.519,0.17,5.202,0.596c1.701,0.303,3.288,0.981,4.789,1.588c1.45,0.788,2.849,1.48,3.995,2.466
		c0.579,0.476,1.141,0.915,1.654,1.379c0.484,0.516,0.946,1.001,1.362,1.493c0.403,0.513,0.82,0.932,1.13,1.446
		c0.311,0.51,0.613,0.97,0.86,1.433c0.247,0.463,0.486,0.873,0.671,1.283c0.169,0.431,0.318,0.82,0.433,1.188
		c0.248,0.714,0.367,1.323,0.469,1.707c0.092,0.396,0.118,0.62,0.118,0.62s-0.24-0.016-0.648-0.071
		c-0.397-0.068-1.011-0.119-1.695-0.248c-0.336-0.061-0.708-0.13-1.113-0.204c-0.425-0.037-0.845-0.113-1.304-0.168
		c-0.897-0.131-1.838-0.314-2.88-0.393c-0.511-0.054-1.011-0.147-1.532-0.211c-0.54-0.025-1.066-0.092-1.607-0.135
		c-1.048-0.164-2.188-0.123-3.255-0.282c-1.12,0.012-2.201-0.147-3.32-0.128c-1.102-0.096-2.219-0.018-3.329-0.094
		c-1.108,0.075-2.226-0.011-3.33,0.082c-1.122-0.024-2.201,0.14-3.324,0.123c-1.069,0.157-2.21,0.117-3.258,0.28
		c-0.54,0.043-1.065,0.113-1.608,0.136c-0.521,0.064-1.018,0.162-1.533,0.212c-1.06,0.095-1.942,0.239-2.82,0.353
		c-0.447,0.048-0.864,0.116-1.288,0.152c-0.421,0.093-0.804,0.192-1.169,0.254c-0.708,0.153-1.323,0.209-1.716,0.275
		C299.031,189.94,298.798,189.949,298.798,189.949z"/>
	<path style="fill:#666666;" d="M191.414,170.933c0,0,0.034-0.23,0.129-0.627c0.106-0.385,0.223-0.991,0.447-1.68
		c0.103-0.356,0.232-0.728,0.378-1.137c0.186-0.411,0.429-0.829,0.686-1.299c0.256-0.473,0.574-0.942,0.907-1.465
		c0.335-0.534,0.736-0.938,1.145-1.453c0.414-0.495,0.878-0.976,1.362-1.491c0.51-0.467,1.075-0.901,1.652-1.377
		c1.143-0.988,2.542-1.68,3.991-2.469c1.5-0.613,3.088-1.286,4.786-1.593c1.681-0.428,3.443-0.525,5.201-0.608
		c1.756,0.081,3.519,0.17,5.202,0.596c1.701,0.303,3.288,0.981,4.789,1.588c1.45,0.788,2.849,1.48,3.995,2.466
		c0.579,0.476,1.141,0.915,1.654,1.377c0.484,0.516,0.946,1.001,1.362,1.493c0.403,0.513,0.82,0.932,1.13,1.446
		c0.311,0.51,0.613,0.968,0.86,1.433c0.247,0.464,0.486,0.873,0.671,1.284c0.169,0.431,0.318,0.82,0.433,1.188
		c0.248,0.713,0.367,1.323,0.469,1.707c0.092,0.396,0.118,0.62,0.118,0.62s-0.24-0.016-0.648-0.071
		c-0.397-0.068-1.011-0.119-1.695-0.248c-0.337-0.061-0.708-0.129-1.113-0.204c-0.425-0.037-0.845-0.113-1.304-0.166
		c-0.897-0.131-1.838-0.314-2.88-0.393c-0.511-0.054-1.011-0.147-1.532-0.211c-0.54-0.027-1.066-0.092-1.607-0.135
		c-1.048-0.164-2.188-0.123-3.254-0.282c-1.12,0.012-2.201-0.147-3.32-0.128c-1.102-0.095-2.219-0.018-3.329-0.093
		c-1.108,0.074-2.226-0.012-3.33,0.082c-1.122-0.023-2.201,0.14-3.324,0.124c-1.069,0.157-2.21,0.117-3.258,0.28
		c-0.54,0.043-1.065,0.113-1.608,0.136c-0.521,0.064-1.018,0.162-1.533,0.212c-1.06,0.095-1.942,0.239-2.82,0.353
		c-0.447,0.048-0.864,0.116-1.288,0.152c-0.421,0.093-0.804,0.192-1.169,0.254c-0.708,0.153-1.323,0.209-1.716,0.276
		C191.647,170.922,191.414,170.933,191.414,170.933z"/>
	<path style="fill:#666666;" d="M356.51,56.022c71.51-0.687,120.948,0.88,120.948,21.095c0,27.969-94.763,81.074-211.67,81.074
		s-211.67-53.105-211.67-81.074c0-20.19,49.354-21.782,120.767-21.095"/>
</g>
<g>
	<path style="fill:#4D4D4D;" d="M356.511,56.022h40.764C384.759,55.835,371.094,55.882,356.511,56.022z"/>
	<path style="fill:#4D4D4D;" d="M114.421,77.116c0-16.089,31.34-20.367,80.208-21.095h-19.746
		C103.47,55.334,54.116,56.926,54.116,77.116c0,27.969,94.763,81.074,211.67,81.074c10.239,0,20.302-0.415,30.152-1.177
		C193.318,149.074,114.421,102.636,114.421,77.116z"/>
</g>
<path style="fill:#666666;" d="M365.013,85.217c-32.191,11.012-65.757,16.524-99.31,16.524c-15.426,0-30.864-1.17-46.157-3.498
	c-17.971-2.738-35.761-7.08-53.153-13.026l9.962-34.229l10.819-37.184c3.22-11.06,15.426-16.801,26.003-12.218l20.528,8.889
	l31.901,13.834h0.181l52.441-22.723c10.577-4.583,22.771,1.158,25.991,12.218l10.831,37.184L365.013,85.217z"/>
<path style="fill:#4D4D4D;" d="M233.705,10.475l-14.16,87.768c-17.971-2.738-35.761-7.08-53.153-13.026l20.781-71.413
	c3.22-11.06,15.426-16.801,26.003-12.218L233.705,10.475z"/>
<path style="fill:#EA8249;" d="M365.013,85.217c-32.191,11.012-65.757,16.524-99.31,16.524c-15.426,0-30.864-1.17-46.157-3.498
	c-17.971-2.738-35.761-7.08-53.153-13.026l9.962-34.229c29.115,8.865,59.232,13.303,89.336,13.303
	c30.116,0,60.233-4.438,89.36-13.303L365.013,85.217z"/>
<rect x="256.744" y="391.729" style="fill:#4D4D4D;" width="18.091" height="120.272"/>
<path style="fill:#C0E7F9;" d="M454.059,458.07c-17.983,17.971-44.674,21.951-66.492,11.916c-6.187-2.846-11.989-6.814-17.09-11.916
	c-23.085-23.085-23.085-60.51,0-83.583c21.191-21.191,54.455-22.928,77.625-5.222c2.074,1.592,4.065,3.329,5.958,5.222
	C477.132,397.56,477.132,434.985,454.059,458.07z"/>
<path style="fill:#E6F6FC;" d="M454.059,458.07c-17.983,17.971-44.674,21.951-66.492,11.916l60.534-100.721
	c2.074,1.592,4.065,3.329,5.958,5.222C477.132,397.56,477.132,434.985,454.059,458.07z"/>
<g>
	<path style="fill:#666666;" d="M491.052,504.108c-2.315,0-4.63-0.883-6.396-2.65l-36.998-36.998c-3.533-3.533-3.533-9.26,0-12.792
		c3.533-3.533,9.26-3.533,12.792,0l36.998,36.998c3.533,3.533,3.533,9.26,0,12.792C495.683,503.225,493.368,504.108,491.052,504.108
		z"/>
	<path style="fill:#666666;" d="M412.265,422.585c-4.996,0-9.046-4.05-9.046-9.046v-19.277c0-4.996,4.05-9.046,9.046-9.046
		s9.046,4.05,9.046,9.046v19.277C421.311,418.535,417.261,422.585,412.265,422.585z"/>
	<circle style="fill:#666666;" cx="412.27" cy="440.25" r="9.046"/>
</g>
<path style="fill:#B3B3B3;" d="M37.231,259.503c-3.33,0-6.03-2.7-6.03-6.031v-18.091c0-3.33,2.7-6.031,6.03-6.031
	c3.33,0,6.03,2.7,6.03,6.031v18.091C43.262,256.802,40.562,259.503,37.231,259.503z"/>
<g>
	<path style="fill:#B28850;" d="M173.448,242.613v67.421c-4.39-3.389-8.419-7.14-12.061-11.181v-56.24
		c0-3.329,2.702-6.03,6.031-6.03S173.448,239.284,173.448,242.613z"/>
	<path style="fill:#B28850;" d="M206.157,296.236v37.606l-12.061-8.756v-28.85c0-3.329,2.702-6.031,6.03-6.031
		S206.157,292.907,206.157,296.236z"/>
	<path style="fill:#B28850;" d="M238.879,327.462v27.909c-4.173-1.749-8.226-3.944-12.061-6.561v-21.348
		c0-3.329,2.702-6.03,6.03-6.03S238.879,324.133,238.879,327.462z"/>
	<path style="fill:#B28850;" d="M370.187,242.613v56.24c-3.642,4.04-7.671,7.791-12.061,11.181v-67.421
		c0-3.329,2.702-6.03,6.03-6.03S370.187,239.284,370.187,242.613z"/>
	<path style="fill:#B28850;" d="M385.468,275.467V148.874l1.942,20.118l5.801,60.003
		C394.767,245.169,391.969,261.15,385.468,275.467z"/>
	<path style="fill:#B28850;" d="M337.477,296.236v28.85l-12.061,8.756v-37.606c0-3.329,2.702-6.03,6.03-6.03
		S337.477,292.907,337.477,296.236z"/>
	<path style="fill:#B28850;" d="M304.756,327.462v21.348c-3.835,2.617-7.876,4.812-12.061,6.561v-27.909
		c0-3.329,2.702-6.03,6.03-6.03S304.756,324.133,304.756,327.462z"/>
</g>
<path style="fill:#EA8249;" d="M412.119,484.387c-9.611,0-19.281-2.02-28.332-6.182c-7.335-3.375-13.965-7.996-19.706-13.739
	c-12.874-12.873-19.963-29.988-19.963-48.192c0-18.205,7.089-35.317,19.965-48.185c24.046-24.047,62.528-26.633,89.511-6.011
	c2.427,1.861,4.73,3.881,6.863,6.015c26.562,26.562,26.563,69.796,0,96.372c-0.001,0.001-0.002,0.002-0.004,0.004
	C447.422,477.49,429.874,484.387,412.119,484.387z M412.344,366.25c-12.915,0-25.784,4.947-35.471,14.634
	c-9.457,9.452-14.664,22.02-14.664,35.391s5.208,25.943,14.664,35.4c4.223,4.221,9.093,7.618,14.474,10.095
	c18.93,8.706,41.559,4.65,56.314-10.093l0,0c19.512-19.523,19.513-51.28,0.001-70.792c-1.576-1.578-3.282-3.071-5.068-4.442
	C433.653,369.609,422.981,366.25,412.344,366.25z M454.059,458.07h0.012H454.059z"/>
<g>
	<circle style="fill:#4D4D4D;" cx="298.824" cy="425.777" r="9.046"/>
	<circle style="fill:#4D4D4D;" cx="298.824" cy="474.624" r="9.046"/>
	<path style="fill:#4D4D4D;" d="M345.789,204.364c0,0-29.401-8.741-39.73,9.535c0,0,17.084,4.371,28.606,15.893l-7.946-18.276
		L345.789,204.364z"/>
</g>
<path style="fill:#B28850;" d="M146.1,275.467V148.874l-1.942,20.118l-5.801,60.003C136.801,245.169,139.599,261.15,146.1,275.467z"
	/>
<g>
</g>
<g>
</g>
<g>
</g>
<g>
</g>
<g>
</g>
<g>
</g>
<g>
</g>
<g>
</g>
<g>
</g>
<g>
</g>
<g>
</g>
<g>
</g>
<g>
</g>
<g>
</g>
<g>
</g>
</svg>
