<?xml version="1.0" encoding="iso-8859-1"?>
<!-- Generator: Adobe Illustrator 19.0.0, SVG Export Plug-In . SVG Version: 6.00 Build 0)  -->
<svg version="1.1" id="Layer_1" xmlns="http://www.w3.org/2000/svg" xmlns:xlink="http://www.w3.org/1999/xlink" x="0px" y="0px"
	 viewBox="0 0 512 512" style="enable-background:new 0 0 512 512;" xml:space="preserve">
<polygon style="fill:#CCCCCC;" points="303.995,473.732 207.993,473.732 216.031,440.249 223.797,407.946 288.203,407.946 
	295.956,440.249 "/>
<polygon style="fill:#999999;" points="295.956,440.249 216.031,440.249 223.797,407.946 249.925,375.918 288.203,407.946 "/>
<path style="fill:#CCCCCC;" d="M512,62.829v311.238c0,18.711-15.17,33.881-33.881,33.881H33.881C15.17,407.946,0,392.778,0,374.067
	V62.829c0-18.711,15.17-33.881,33.881-33.881h444.239C496.83,28.947,512,44.118,512,62.829z"/>
<path style="fill:#E6E6E6;" d="M512,62.829v311.238c0,18.711-15.17,33.881-33.881,33.881H205.943L312.207,28.948h165.912
	C496.83,28.947,512,44.118,512,62.829z"/>
<rect y="75.427" style="fill:#9BD7F4;" width="512" height="286.042"/>
<polygon style="fill:#C8EDFC;" points="512,75.427 512,361.469 218.976,361.469 299.174,75.427 "/>
<rect x="177.715" y="464.415" style="fill:#E6E6E6;" width="156.557" height="18.636"/>
<g>
	<rect y="69.836" style="fill:#B3B3B3;" width="512" height="11.182"/>
	<rect y="356.835" style="fill:#B3B3B3;" width="512" height="11.182"/>
</g>
<g>
	<path style="fill:#4D4D4D;" d="M94.039,103.642H79.676c-9.082,0-16.474,7.38-16.474,16.462v31.011
		c0,9.082,7.392,16.474,16.474,16.474h14.362c9.082,0,16.474-7.392,16.474-16.474v-31.011
		C110.513,111.022,103.121,103.642,94.039,103.642z M98.089,151.115c0,2.236-1.826,4.05-4.05,4.05H79.676
		c-2.236,0-4.05-1.814-4.05-4.05v-31.011c0-2.224,1.814-4.038,4.05-4.038h14.362c2.224,0,4.05,1.814,4.05,4.038V151.115z"/>
	<path style="fill:#4D4D4D;" d="M218.491,103.642h-14.362c-9.082,0-16.474,7.38-16.474,16.462v31.011
		c0,9.082,7.392,16.474,16.474,16.474h14.362c9.082,0,16.474-7.392,16.474-16.474v-31.011
		C234.966,111.022,227.573,103.642,218.491,103.642z M222.542,151.115c0,2.236-1.826,4.05-4.05,4.05h-14.362
		c-2.236,0-4.05-1.814-4.05-4.05v-31.011c0-2.224,1.814-4.038,4.05-4.038h14.362c2.224,0,4.05,1.814,4.05,4.038V151.115z"/>
	<path style="fill:#4D4D4D;" d="M370.886,103.642h-14.362c-9.082,0-16.474,7.38-16.474,16.462v31.011
		c0,9.082,7.392,16.474,16.474,16.474h14.362c9.082,0,16.462-7.392,16.462-16.474v-31.011
		C387.348,111.022,379.968,103.642,370.886,103.642z M374.924,151.115c0,2.236-1.814,4.05-4.038,4.05h-14.362
		c-2.236,0-4.05-1.814-4.05-4.05v-31.011c0-2.224,1.814-4.038,4.05-4.038h14.362c2.224,0,4.038,1.814,4.038,4.038V151.115z"/>
	<path style="fill:#4D4D4D;" d="M290.452,106.548c-2.659-1.826-5.877-2.907-9.343-2.907h-14.362c-9.082,0-16.462,7.38-16.462,16.462
		v31.011c0,9.082,7.38,16.474,16.462,16.474h14.362c9.082,0,16.474-7.392,16.474-16.474v-31.009
		C297.584,114.489,294.751,109.519,290.452,106.548z M285.16,151.115c0,2.236-1.814,4.05-4.05,4.05h-14.362
		c-2.224,0-4.038-1.814-4.038-4.05v-31.011c0-2.224,1.814-4.038,4.038-4.038h14.362c2.236,0,4.05,1.814,4.05,4.038V151.115
		L285.16,151.115z"/>
	<rect x="127.41" y="103.642" style="fill:#4D4D4D;" width="12.424" height="63.947"/>
	<rect x="159.911" y="103.642" style="fill:#4D4D4D;" width="12.424" height="63.947"/>
	<rect x="405.053" y="103.642" style="fill:#4D4D4D;" width="12.424" height="63.947"/>
	<rect x="312.108" y="103.642" style="fill:#4D4D4D;" width="12.424" height="63.947"/>
	<rect x="436.362" y="103.642" style="fill:#4D4D4D;" width="12.424" height="63.947"/>
	<path style="fill:#4D4D4D;" d="M94.039,269.305H79.676c-9.082,0-16.474,7.392-16.474,16.474v31.011
		c0,9.082,7.392,16.462,16.474,16.462h14.362c9.082,0,16.474-7.38,16.474-16.462V285.78
		C110.513,276.699,103.121,269.305,94.039,269.305z M98.089,316.79c0,2.224-1.826,4.038-4.05,4.038H79.676
		c-2.236,0-4.05-1.814-4.05-4.038V285.78c0-2.236,1.814-4.05,4.05-4.05h14.362c2.224,0,4.05,1.814,4.05,4.05V316.79z"/>
	<path style="fill:#4D4D4D;" d="M218.491,269.305h-14.362c-9.082,0-16.474,7.392-16.474,16.474v31.011
		c0,9.082,7.392,16.462,16.474,16.462h14.362c3.392,0,6.548-1.031,9.181-2.795c4.398-2.957,7.293-7.976,7.293-13.667V285.78
		C234.966,276.699,227.573,269.305,218.491,269.305z M222.542,316.79c0,2.224-1.826,4.038-4.05,4.038h-14.362
		c-2.236,0-4.05-1.814-4.05-4.038V285.78c0-2.236,1.814-4.05,4.05-4.05h14.362c2.224,0,4.05,1.814,4.05,4.05V316.79z"/>
	<path style="fill:#4D4D4D;" d="M370.886,269.305h-14.362c-9.082,0-16.474,7.392-16.474,16.474v31.011
		c0,9.082,7.392,16.462,16.474,16.462h14.362c9.082,0,16.462-7.38,16.462-16.462V285.78
		C387.348,276.699,379.968,269.305,370.886,269.305z M374.924,316.79c0,2.224-1.814,4.038-4.038,4.038h-14.362
		c-2.236,0-4.05-1.814-4.05-4.038V285.78c0-2.236,1.814-4.05,4.05-4.05h14.362c2.224,0,4.038,1.814,4.038,4.05V316.79z"/>
	<path style="fill:#4D4D4D;" d="M432.311,269.305h-14.35c-9.094,0-16.474,7.392-16.474,16.474v31.011
		c0,9.082,7.38,16.462,16.474,16.462h14.35c9.082,0,16.474-7.38,16.474-16.462V285.78
		C448.786,276.699,441.393,269.305,432.311,269.305z M436.362,316.79c0,2.224-1.814,4.038-4.05,4.038h-14.35
		c-2.236,0-4.05-1.814-4.05-4.038V285.78c0-2.236,1.814-4.05,4.05-4.05h14.35c2.236,0,4.05,1.814,4.05,4.05V316.79z"/>
	<rect x="250.285" y="269.306" style="fill:#4D4D4D;" width="12.424" height="63.947"/>
	<rect x="281.196" y="269.306" style="fill:#4D4D4D;" width="12.424" height="63.947"/>
	<rect x="127.41" y="269.306" style="fill:#4D4D4D;" width="12.424" height="63.947"/>
	<rect x="159.911" y="269.306" style="fill:#4D4D4D;" width="12.424" height="63.947"/>
	<rect x="312.108" y="269.306" style="fill:#4D4D4D;" width="12.424" height="63.947"/>
	<path style="fill:#4D4D4D;" d="M432.311,186.474h-14.35c-9.094,0-16.474,7.392-16.474,16.474v30.998
		c0,9.082,7.38,16.474,16.474,16.474h14.35c9.082,0,16.474-7.392,16.474-16.474v-30.998
		C448.786,193.866,441.393,186.474,432.311,186.474z M436.362,233.946c0,2.236-1.814,4.05-4.05,4.05h-14.35
		c-2.236,0-4.05-1.814-4.05-4.05v-30.998c0-2.236,1.814-4.05,4.05-4.05h14.35c2.236,0,4.05,1.814,4.05,4.05V233.946z"/>
	<path style="fill:#4D4D4D;" d="M155.464,186.474h-14.35c-9.082,0-16.474,7.392-16.474,16.474v30.998
		c0,9.082,7.392,16.474,16.474,16.474h14.35c9.094,0,16.474-7.392,16.474-16.474v-30.998
		C171.938,193.866,164.558,186.474,155.464,186.474z M159.514,233.946c0,2.236-1.814,4.05-4.05,4.05h-14.35
		c-2.236,0-4.05-1.814-4.05-4.05v-30.998c0-2.236,1.814-4.05,4.05-4.05h14.35c2.236,0,4.05,1.814,4.05,4.05V233.946z"/>
	<path style="fill:#4D4D4D;" d="M245.241,186.474h-14.362c-9.082,0-16.474,7.392-16.474,16.474v30.998
		c0,9.082,7.392,16.474,16.474,16.474h14.362c1.777,0,3.491-0.286,5.094-0.82c6.597-2.137,11.381-8.349,11.381-15.654v-30.998
		C261.715,193.866,254.323,186.474,245.241,186.474z M249.291,233.946c0,2.236-1.814,4.05-4.05,4.05h-14.362
		c-2.224,0-4.05-1.814-4.05-4.05v-30.998c0-2.236,1.826-4.05,4.05-4.05h14.362c2.236,0,4.05,1.814,4.05,4.05V233.946z"/>
	<rect x="372.154" y="186.474" style="fill:#4D4D4D;" width="12.424" height="63.947"/>
	<rect x="339.652" y="186.474" style="fill:#4D4D4D;" width="12.424" height="63.947"/>
	<rect x="94.511" y="186.474" style="fill:#4D4D4D;" width="12.424" height="63.947"/>
	<rect x="187.456" y="186.474" style="fill:#4D4D4D;" width="12.424" height="63.947"/>
	<rect x="63.204" y="186.474" style="fill:#4D4D4D;" width="12.424" height="63.947"/>
	<path style="fill:#4D4D4D;" d="M307.858,186.474h-14.35c-9.082,0-16.474,7.392-16.474,16.474v30.998
		c0,9.082,7.392,16.474,16.474,16.474h14.35c9.082,0,16.474-7.392,16.474-16.474v-30.998
		C324.333,193.866,316.941,186.474,307.858,186.474z M311.909,233.946c0,2.236-1.814,4.05-4.05,4.05h-14.35
		c-2.236,0-4.05-1.814-4.05-4.05v-30.998c0-2.236,1.814-4.05,4.05-4.05h14.35c2.236,0,4.05,1.814,4.05,4.05V233.946z"/>
</g>
<g>
	<path style="fill:#808080;" d="M227.673,330.457l7.293-26.016v12.35C234.966,322.482,232.071,327.501,227.673,330.457z"/>
	<path style="fill:#808080;" d="M250.335,249.602l11.381-40.565v24.91C261.715,241.251,256.932,247.463,250.335,249.602z"/>
	<rect x="250.285" y="269.306" style="fill:#808080;" width="12.424" height="63.947"/>
	<rect x="281.196" y="269.306" style="fill:#808080;" width="12.424" height="63.947"/>
	<path style="fill:#808080;" d="M297.584,120.104v31.011c0,9.082-7.392,16.474-16.474,16.474h-7.778l3.491-12.424h4.286
		c2.236,0,4.05-1.814,4.05-4.05V125.41l5.293-18.86C294.751,109.519,297.584,114.489,297.584,120.104z"/>
	<path style="fill:#808080;" d="M307.858,186.474h-14.35c-9.082,0-16.474,7.392-16.474,16.474v30.998
		c0,9.082,7.392,16.474,16.474,16.474h14.35c9.082,0,16.474-7.392,16.474-16.474v-30.998
		C324.333,193.866,316.941,186.474,307.858,186.474z M311.909,233.946c0,2.236-1.814,4.05-4.05,4.05h-14.35
		c-2.236,0-4.05-1.814-4.05-4.05v-30.998c0-2.236,1.814-4.05,4.05-4.05h14.35c2.236,0,4.05,1.814,4.05,4.05V233.946z"/>
	<rect x="312.108" y="103.642" style="fill:#808080;" width="12.424" height="63.947"/>
	<rect x="312.108" y="269.306" style="fill:#808080;" width="12.424" height="63.947"/>
	<rect x="339.652" y="186.474" style="fill:#808080;" width="12.424" height="63.947"/>
	<rect x="372.154" y="186.474" style="fill:#808080;" width="12.424" height="63.947"/>
	<path style="fill:#808080;" d="M370.886,103.642h-14.362c-9.082,0-16.474,7.38-16.474,16.462v31.011
		c0,9.082,7.392,16.474,16.474,16.474h14.362c9.082,0,16.462-7.392,16.462-16.474v-31.011
		C387.348,111.022,379.968,103.642,370.886,103.642z M374.924,151.115c0,2.236-1.814,4.05-4.038,4.05h-14.362
		c-2.236,0-4.05-1.814-4.05-4.05v-31.011c0-2.224,1.814-4.038,4.05-4.038h14.362c2.224,0,4.038,1.814,4.038,4.038V151.115z"/>
	<path style="fill:#808080;" d="M370.886,269.305h-14.362c-9.082,0-16.474,7.392-16.474,16.474v31.011
		c0,9.082,7.392,16.462,16.474,16.462h14.362c9.082,0,16.462-7.38,16.462-16.462V285.78
		C387.348,276.699,379.968,269.305,370.886,269.305z M374.924,316.79c0,2.224-1.814,4.038-4.038,4.038h-14.362
		c-2.236,0-4.05-1.814-4.05-4.038V285.78c0-2.236,1.814-4.05,4.05-4.05h14.362c2.224,0,4.038,1.814,4.038,4.05V316.79z"/>
	<rect x="405.053" y="103.642" style="fill:#808080;" width="12.424" height="63.947"/>
	<rect x="436.362" y="103.642" style="fill:#808080;" width="12.424" height="63.947"/>
	<path style="fill:#808080;" d="M432.311,186.474h-14.35c-9.094,0-16.474,7.392-16.474,16.474v30.998
		c0,9.082,7.38,16.474,16.474,16.474h14.35c9.082,0,16.474-7.392,16.474-16.474v-30.998
		C448.786,193.866,441.393,186.474,432.311,186.474z M436.362,233.946c0,2.236-1.814,4.05-4.05,4.05h-14.35
		c-2.236,0-4.05-1.814-4.05-4.05v-30.998c0-2.236,1.814-4.05,4.05-4.05h14.35c2.236,0,4.05,1.814,4.05,4.05V233.946z"/>
	<path style="fill:#808080;" d="M432.311,269.305h-14.35c-9.094,0-16.474,7.392-16.474,16.474v31.011
		c0,9.082,7.38,16.462,16.474,16.462h14.35c9.082,0,16.474-7.38,16.474-16.462V285.78
		C448.786,276.699,441.393,269.305,432.311,269.305z M436.362,316.79c0,2.224-1.814,4.038-4.05,4.038h-14.35
		c-2.236,0-4.05-1.814-4.05-4.038V285.78c0-2.236,1.814-4.05,4.05-4.05h14.35c2.236,0,4.05,1.814,4.05,4.05V316.79z"/>
</g>
<g>
</g>
<g>
</g>
<g>
</g>
<g>
</g>
<g>
</g>
<g>
</g>
<g>
</g>
<g>
</g>
<g>
</g>
<g>
</g>
<g>
</g>
<g>
</g>
<g>
</g>
<g>
</g>
<g>
</g>
</svg>
